<svg xmlns="http://www.w3.org/2000/svg" width="27.243" height="20.89" viewBox="0 0 27.243 20.89">
  <g id="Group_680" data-name="Group 680" transform="translate(0 0)">
    <g id="Path_627" data-name="Path 627" transform="matrix(0.978, -0.208, 0.208, 0.978, 0, 4.1)" fill="none">
      <path d="M0,4.954a48.81,48.81,0,0,0,8.887.31c3.555-.369,2.914-.471,5.334-1.787A18.586,18.586,0,0,0,18.566,0L19.72,16.127l-4.894-3.34a16.691,16.691,0,0,0-5.8-1.232,34.063,34.063,0,0,0-8.3,1.192Z" stroke="none"/>
      <path d="M 16.85898971557617 4.168759346008301 C 16.33734130859375 4.543913841247559 15.77144813537598 4.910013198852539 15.17656517028809 5.233553886413574 C 14.68990516662598 5.498244285583496 14.34205627441406 5.706724166870117 14.03515625 5.890653610229492 C 12.58014583587646 6.762703895568848 12.08224582672119 6.942744255065918 9.093855857849121 7.253273963928223 C 8.322715759277344 7.333403587341309 7.42719554901123 7.37403392791748 6.432155609130859 7.37403392791748 C 4.938465118408203 7.37403392791748 3.425115585327148 7.284470558166504 2.216464996337891 7.186494827270508 L 2.504011154174805 10.27501678466797 C 4.171220779418945 9.928562164306641 6.475066184997559 9.544864654541016 8.501175880432129 9.544864654541016 C 8.709405899047852 9.544864654541016 8.914276123046875 9.548923492431641 9.110075950622559 9.556934356689453 C 12.90363597869873 9.712054252624512 15.55496597290039 10.92120361328125 15.66597557067871 10.97260475158691 L 15.81623554229736 11.04217338562012 L 17.42975234985352 12.14325046539307 L 16.85898971557617 4.168759346008301 M 18.56573486328125 3.814697265625e-06 L 19.72003555297852 16.12746429443359 L 14.82567596435547 12.78751373291016 C 14.82567596435547 12.78751373291016 12.4680061340332 11.69591426849365 9.028366088867188 11.55526351928711 C 5.588739395141602 11.41460132598877 0.7255382537841797 12.74732398986816 0.7255363464355469 12.74732398986816 L -3.814697265625e-06 4.954334259033203 C -3.814697265625e-06 4.954334259033203 5.331903457641602 5.63341236114502 8.88714599609375 5.263983726501465 C 12.44239616394043 4.894554138183594 11.80134582519531 4.792604446411133 14.22099590301514 3.476604461669922 C 16.64064598083496 2.160614013671875 18.56573486328125 3.814697265625e-06 18.56573486328125 3.814697265625e-06 Z" stroke="none" fill="#080708"/>
    </g>
    <line id="Line_39" data-name="Line 39" x2="0.819" y2="4.917" transform="translate(8.153 8.202)" fill="none" stroke="#080708" stroke-width="1"/>
    <line id="Line_40" data-name="Line 40" x1="2.458" y2="0.819" transform="translate(5.694 11.479)" fill="none" stroke="#080708" stroke-width="1"/>
    <g id="Path_628" data-name="Path 628" transform="translate(5.103 14.317) rotate(-17)" fill="none">
      <path d="M0,0H4.1L5.4,6.873l-4.153-.43Z" stroke="none"/>
      <path d="M 2.424724102020264 1.999999523162842 L 2.929730415344238 4.606327056884766 L 2.935967445373535 4.606971740722656 L 2.441134691238403 1.999999523162842 L 2.424724102020264 1.999999523162842 M 4.291534423828125e-06 -4.76837158203125e-07 L 4.097224235534668 -4.76837158203125e-07 L 5.40174388885498 6.872719764709473 L 1.248424053192139 6.443069458007812 L 4.291534423828125e-06 -4.76837158203125e-07 Z" stroke="none" fill="#080708"/>
    </g>
    <g id="Rectangle_343" data-name="Rectangle 343" transform="translate(19.576 6.244) rotate(-14)" fill="#fff" stroke="#080708" stroke-linejoin="round" stroke-width="2">
      <rect width="2.458" height="4.097" stroke="none"/>
      <rect x="1" y="1" width="0.458" height="2.097" fill="none"/>
    </g>
    <line id="Line_41" data-name="Line 41" y1="0.819" x2="3.278" transform="translate(23.722 6.564)" fill="none" stroke="#080708" stroke-width="2"/>
    <line id="Line_42" data-name="Line 42" y1="2.458" x2="1.939" transform="translate(22.603 2.467)" fill="none" stroke="#080708" stroke-width="2"/>
    <line id="Line_43" data-name="Line 43" x2="2.758" y2="2.081" transform="translate(23.572 10.219)" fill="none" stroke="#080708" stroke-width="2"/>
  </g>
</svg>
