<svg xmlns="http://www.w3.org/2000/svg" width="15.584" height="19" viewBox="0 0 15.584 19">
  <g id="company" transform="translate(-46.022)">
    <path id="Path_78" data-name="Path 78" d="M51.189,132.581c-2.828-.016-5.167-5.789-5.167-8.728,0-4.8,3.6-5.853,4.991-5.853a5.743,5.743,0,0,1,1.883.463,4.209,4.209,0,0,0,1.075.308,3.346,3.346,0,0,0,.771-.25,6.182,6.182,0,0,1,2.325-.562h.005a4.765,4.765,0,0,1,3.988,2.014l.291.437-.419.316a3.522,3.522,0,0,0-1.689,2.9,3.278,3.278,0,0,0,1.829,3.031c.262.158.533.32.533.676,0,.232-1.853,5.216-4.543,5.216a3.653,3.653,0,0,1-1.534-.372,3.111,3.111,0,0,0-1.366-.329,3.512,3.512,0,0,0-1.081.292,5.3,5.3,0,0,1-1.875.438Z" transform="translate(0 -113.581)"/>
    <path id="Path_79" data-name="Path 79" d="M258.724,0c.07,2.526-1.737,4.279-3.541,4.169A4.026,4.026,0,0,1,258.724,0Z" transform="translate(-201.372)"/>
  </g>
</svg>
