<svg xmlns="http://www.w3.org/2000/svg" xmlns:xlink="http://www.w3.org/1999/xlink" width="70.482" height="68" viewBox="0 0 70.482 68">
  <defs>
    <filter id="Path_731" x="0" y="0" width="70.482" height="68" filterUnits="userSpaceOnUse">
      <feOffset dy="3" input="SourceAlpha"/>
      <feGaussianBlur stdDeviation="3" result="blur"/>
      <feFlood flood-opacity="0.161"/>
      <feComposite operator="in" in2="blur"/>
      <feComposite in="SourceGraphic"/>
    </filter>
  </defs>
  <g id="Group_6388" data-name="Group 6388" transform="translate(-18188.518 -16919)">
    <g transform="matrix(1, 0, 0, 1, 18188.52, 16919)" filter="url(#Path_731)">
      <g id="Path_731-2" data-name="Path 731" transform="translate(11.48 6)" fill="#fdd519">
        <path d="M 48 48 L -0.322341650724411 48 L 2.968632936477661 5.30002498626709 L 23.59648132324219 2 L 48 2 L 48 48 Z" stroke="none"/>
        <path d="M 23.75544738769531 4 L 4.841545104980469 7.025829315185547 L 1.837734222412109 46 L 46 46 L 46 4 L 23.75544738769531 4 M 23.4375 0 L 50 0 L 50 50 L -2.482421875 50 L 1.095699310302734 3.574222564697266 L 23.4375 0 Z" stroke="none" fill="#080708"/>
      </g>
    </g>
    <g id="location_on-24px" transform="translate(18209.938 16934.438)">
      <path id="Path_284" data-name="Path 284" d="M0,0H30.125V30.125H0Z" fill="none"/>
      <path id="Path_285" data-name="Path 285" d="M13.787,2A8.78,8.78,0,0,0,5,10.787C5,17.377,13.787,27.1,13.787,27.1s8.787-9.728,8.787-16.318A8.78,8.78,0,0,0,13.787,2Zm0,11.925a3.138,3.138,0,1,1,3.138-3.138A3.139,3.139,0,0,1,13.787,13.925Z" transform="translate(1.276 0.51)" fill="#080708"/>
    </g>
  </g>
</svg>
