<svg xmlns="http://www.w3.org/2000/svg" xmlns:xlink="http://www.w3.org/1999/xlink" width="70.482" height="68" viewBox="0 0 70.482 68">
  <defs>
    <filter id="Path_731" x="0" y="0" width="70.482" height="68" filterUnits="userSpaceOnUse">
      <feOffset dy="3" input="SourceAlpha"/>
      <feGaussianBlur stdDeviation="3" result="blur"/>
      <feFlood flood-opacity="0.161"/>
      <feComposite operator="in" in2="blur"/>
      <feComposite in="SourceGraphic"/>
    </filter>
  </defs>
  <g id="Group_6390" data-name="Group 6390" transform="translate(9 -19.5)">
    <g transform="matrix(1, 0, 0, 1, -9, 19.5)" filter="url(#Path_731)">
      <g id="Path_731-2" data-name="Path 731" transform="translate(11.48 6)" fill="#fdd519">
        <path d="M 48 48 L -0.322341650724411 48 L 2.968632936477661 5.30002498626709 L 23.59648132324219 2 L 48 2 L 48 48 Z" stroke="none"/>
        <path d="M 23.75544738769531 4 L 4.841545104980469 7.025829315185547 L 1.837734222412109 46 L 46 46 L 46 4 L 23.75544738769531 4 M 23.4375 0 L 50 0 L 50 50 L -2.482421875 50 L 1.095699310302734 3.574222564697266 L 23.4375 0 Z" stroke="none" fill="#080708"/>
      </g>
    </g>
    <g id="Group_927" data-name="Group 927" transform="translate(69.482 1338.5)">
      <g id="Rectangle_360" data-name="Rectangle 360" transform="translate(-52 -1293.333)" fill="none" stroke="#080708" stroke-width="1.5">
        <rect width="20" height="13.333" stroke="none"/>
        <rect x="0.75" y="0.75" width="18.5" height="11.833" fill="none"/>
      </g>
      <g id="Rectangle_361" data-name="Rectangle 361" transform="translate(-52 -1296)" fill="none" stroke="#080708" stroke-width="1.5">
        <rect width="20" height="2.667" stroke="none"/>
        <rect x="-0.75" y="-0.75" width="21.5" height="4.167" fill="none"/>
      </g>
    </g>
  </g>
</svg>
