<svg id="photo_camera-24px" xmlns="http://www.w3.org/2000/svg" width="16" height="16" viewBox="0 0 16 16">
  <path id="Path_276" data-name="Path 276" d="M0,0H16V16H0Z" fill="none"/>
  <circle id="Ellipse_8" data-name="Ellipse 8" cx="2.133" cy="2.133" r="2.133" transform="translate(5.867 5.867)" fill="#c5c5c5"/>
  <path id="Path_277" data-name="Path 277" d="M6.667,2,5.447,3.333H3.333A1.337,1.337,0,0,0,2,4.667v8A1.337,1.337,0,0,0,3.333,14H14a1.337,1.337,0,0,0,1.333-1.333v-8A1.337,1.337,0,0,0,14,3.333H11.887L10.667,2Zm2,10A3.333,3.333,0,1,1,12,8.667,3.335,3.335,0,0,1,8.667,12Z" transform="translate(-0.667 -0.667)" fill="#c5c5c5"/>
</svg>
