<svg xmlns="http://www.w3.org/2000/svg" width="28" height="18.667" viewBox="0 0 28 18.667">
  <g id="pay" transform="translate(0 -85.333)">
    <g id="Group_140" data-name="Group 140" transform="translate(0 85.333)">
      <g id="Group_139" data-name="Group 139" transform="translate(0 0)">
        <path id="Path_71" data-name="Path 71" d="M25.083,85.333H2.917A2.921,2.921,0,0,0,0,88.25v12.833A2.921,2.921,0,0,0,2.917,104H25.083A2.921,2.921,0,0,0,28,101.083V88.25A2.921,2.921,0,0,0,25.083,85.333Zm1.75,15.75a1.752,1.752,0,0,1-1.75,1.75H2.917a1.752,1.752,0,0,1-1.75-1.75V88.25a1.752,1.752,0,0,1,1.75-1.75H25.083a1.752,1.752,0,0,1,1.75,1.75v12.833Z" transform="translate(0 -85.333)" fill="#080708"/>
      </g>
    </g>
    <g id="Group_142" data-name="Group 142" transform="translate(0 88.833)">
      <g id="Group_141" data-name="Group 141">
        <path id="Path_72" data-name="Path 72" d="M27.417,149.333H.583a.584.584,0,0,0-.583.583v3.5A.584.584,0,0,0,.583,154H27.417a.584.584,0,0,0,.583-.583v-3.5A.584.584,0,0,0,27.417,149.333Zm-.583,3.5H1.167V150.5H26.833v2.333Z" transform="translate(0 -149.333)" fill="#080708"/>
      </g>
    </g>
    <g id="Group_144" data-name="Group 144" transform="translate(3.5 97)">
      <g id="Group_143" data-name="Group 143">
        <path id="Path_73" data-name="Path 73" d="M71.583,298.667h-7a.583.583,0,1,0,0,1.167h7a.583.583,0,1,0,0-1.167Z" transform="translate(-64 -298.667)" fill="#080708"/>
      </g>
    </g>
    <g id="Group_146" data-name="Group 146" transform="translate(3.5 99.333)">
      <g id="Group_145" data-name="Group 145" transform="translate(0 0)">
        <path id="Path_74" data-name="Path 74" d="M71.583,341.333h-7a.583.583,0,0,0,0,1.167h7a.583.583,0,1,0,0-1.167Z" transform="translate(-64 -341.333)" fill="#080708"/>
      </g>
    </g>
    <g id="Group_148" data-name="Group 148" transform="translate(19.833 95.833)">
      <g id="Group_147" data-name="Group 147">
        <path id="Path_75" data-name="Path 75" d="M365.584,277.333h-1.167a1.752,1.752,0,0,0-1.75,1.75v1.167a1.752,1.752,0,0,0,1.75,1.75h1.167a1.752,1.752,0,0,0,1.75-1.75v-1.167A1.752,1.752,0,0,0,365.584,277.333Zm.583,2.917a.584.584,0,0,1-.583.583h-1.167a.584.584,0,0,1-.583-.583v-1.167a.584.584,0,0,1,.583-.583h1.167a.584.584,0,0,1,.583.583Z" transform="translate(-362.667 -277.333)" fill="#080708"/>
      </g>
    </g>
  </g>
</svg>
