<svg id="chat-bubbles-with-ellipsis" xmlns="http://www.w3.org/2000/svg" width="30" height="22.894" viewBox="0 0 30 22.894">
  <g id="Group_423" data-name="Group 423">
    <g id="Group_421" data-name="Group 421">
      <path id="Path_495" data-name="Path 495" d="M30,18.3c0-2.683-1.878-5.024-4.674-6.291a7.393,7.393,0,0,1,.277,1.809,7.955,7.955,0,0,1,.8.54A5.051,5.051,0,0,1,28.592,18.3,5.038,5.038,0,0,1,26.4,22.24a9.6,9.6,0,0,1-5.856,1.851,10.287,10.287,0,0,1-4.188-.859,15.825,15.825,0,0,1-2.414.284,11.031,11.031,0,0,0,6.6,2.072,11.655,11.655,0,0,0,4.548-.9l3.441,1.756-.695-3.511A6.351,6.351,0,0,0,30,18.3Z" transform="translate(0 -3.553)"/>
      <path id="Path_496" data-name="Path 496" d="M24.624,12.837a7.53,7.53,0,0,0-.276-1.808c-1.2-4.274-6.133-7.476-12.034-7.476C5.513,3.554,0,7.806,0,13.051a8.271,8.271,0,0,0,2.812,6.041l-.906,4.572,4.483-2.287a15.2,15.2,0,0,0,5.925,1.172c.219,0,.437-.006.653-.014a15.648,15.648,0,0,0,2.415-.285c5.316-1.051,9.246-4.771,9.246-9.2C24.627,12.98,24.626,12.909,24.624,12.837Zm-4.679,5.35a12.344,12.344,0,0,1-6.993,2.4q-.317.016-.639.016-.618,0-1.222-.053a12.139,12.139,0,0,1-6.408-2.357,6.579,6.579,0,0,1-2.849-5.136A6.579,6.579,0,0,1,4.683,7.917a12.509,12.509,0,0,1,7.63-2.41,12.5,12.5,0,0,1,7.63,2.41,7.924,7.924,0,0,1,2.1,2.368,5.9,5.9,0,0,1,.64,1.7,5.366,5.366,0,0,1,.107,1.065A6.578,6.578,0,0,1,19.945,18.187Z" transform="translate(0 -3.553)"/>
    </g>
    <g id="Group_422" data-name="Group 422" transform="translate(6.598 8.179)">
      <circle id="Ellipse_28" data-name="Ellipse 28" cx="1.347" cy="1.347" r="1.347" transform="translate(8.737 0.001)"/>
      <circle id="Ellipse_29" data-name="Ellipse 29" cx="1.347" cy="1.347" r="1.347" transform="translate(4.369 0.001)"/>
      <circle id="Ellipse_30" data-name="Ellipse 30" cx="1.348" cy="1.348" r="1.348"/>
    </g>
  </g>
</svg>
