<svg xmlns="http://www.w3.org/2000/svg" xmlns:xlink="http://www.w3.org/1999/xlink" width="46.147" height="44.596" viewBox="0 0 46.147 44.596">
  <defs>
    <filter id="Ellipse_237" x="0" y="0" width="46.147" height="44.596" filterUnits="userSpaceOnUse">
      <feOffset dy="3" input="SourceAlpha"/>
      <feGaussianBlur stdDeviation="3" result="blur"/>
      <feFlood flood-color="#fdd519"/>
      <feComposite operator="in" in2="blur"/>
      <feComposite in="SourceGraphic"/>
    </filter>
  </defs>
  <g id="Group_6403" data-name="Group 6403" transform="translate(-72.426 -381.702)">
    <g transform="matrix(1, 0, 0, 1, 72.43, 381.7)" filter="url(#Ellipse_237)">
      <ellipse id="Ellipse_237-2" data-name="Ellipse 237" cx="7.5" cy="12" rx="7.5" ry="12" transform="matrix(0.62, 0.79, -0.79, 0.62, 27.91, 6)" fill="#fdd519"/>
    </g>
    <g id="Group_6402" data-name="Group 6402" transform="translate(293 2318.563)">
      <g id="Path_643" data-name="Path 643" transform="translate(-213 -1925.64)" fill="#fff" stroke-linejoin="round">
        <path d="M 0.2835902869701385 12.07077121734619 C 0.2258334010839462 11.98416996002197 0.1049533113837242 11.72828102111816 0.04286578670144081 11.05004024505615 C -0.02952421456575394 10.25913047790527 0.003105785464867949 9.219150543212891 0.04089578613638878 8.014960289001465 L 0.04777578637003899 7.795010566711426 C 0.1042190119624138 5.978853702545166 0.653536319732666 4.061628341674805 0.9458714723587036 3.159284591674805 C 2.357378482818604 2.91430139541626 6.180550575256348 2.294708728790283 10.00491619110107 2.057550430297852 C 11.43362617492676 1.968950390815735 13.01154613494873 1.924030303955078 14.69485569000244 1.924030303955078 C 16.60840797424316 1.924030303955078 18.22328186035156 1.982775568962097 19.09403228759766 2.022354602813721 C 19.43295860290527 3.203477621078491 20.08317375183105 5.76097297668457 19.99127578735352 7.717020511627197 C 19.88360786437988 10.00877285003662 19.23651695251465 11.12356376647949 18.95884132385254 11.43525981903076 C 18.56509590148926 11.40482902526855 17.76527404785156 11.2627649307251 16.92410659790039 11.11334991455078 C 14.83830547332764 10.74287986755371 11.6862154006958 10.18301010131836 8.749015808105469 10.18301010131836 C 8.523776054382324 10.18301010131836 8.300146102905273 10.18631076812744 8.084335327148438 10.19284057617188 C 5.080285549163818 10.28361988067627 2.956185817718506 11.10297012329102 1.550625801086426 11.64515018463135 C 1.051945447921753 11.83750438690186 0.5378410816192627 12.03580856323242 0.2835902869701385 12.07077121734619 Z" stroke="none"/>
        <path d="M 14.69485569000244 2.924030303955078 C 13.03215599060059 2.924030303955078 11.47505569458008 2.968310356140137 10.06681537628174 3.05564022064209 C 6.744641304016113 3.261652946472168 3.418355941772461 3.76096248626709 1.720073699951172 4.042308807373047 C 1.44227409362793 4.993779182434082 1.090093612670898 6.44886589050293 1.047285079956055 7.826080322265625 L 1.040395736694336 8.046390533447266 C 1.014278411865234 8.878818511962891 0.9790477752685547 10.00155830383301 1.02379035949707 10.77644920349121 C 1.080537796020508 10.75465774536133 1.136531829833984 10.73305892944336 1.19073486328125 10.71215057373047 C 2.659685134887695 10.14552021026611 4.879566192626953 9.289230346679688 8.054155349731445 9.193290710449219 C 8.279985427856445 9.186470031738281 8.513775825500488 9.183010101318359 8.749015808105469 9.183010101318359 C 11.77434539794922 9.183010101318359 14.97865581512451 9.752150535583496 17.09900665283203 10.12876033782959 C 17.5430908203125 10.2076416015625 18.04954147338867 10.29759693145752 18.44876861572266 10.36069107055664 C 18.66457366943359 9.882053375244141 18.9296932220459 9.00438404083252 18.99237632751465 7.670100212097168 C 19.05924987792969 6.246600151062012 18.6708869934082 4.335920333862305 18.32361602783203 2.991583824157715 C 17.41867828369141 2.958094596862793 16.14244270324707 2.924030303955078 14.69485569000244 2.924030303955078 M 14.69485282897949 0.9240303039550781 C 17.62960624694824 0.9240303039550781 19.84736633300781 1.059470176696777 19.84736633300781 1.059470176696777 C 19.84736633300781 1.059470176696777 21.12349510192871 4.925990104675293 20.99017524719238 7.763950347900391 C 20.85684585571289 10.60192012786865 19.91466522216797 12.14251041412354 19.31406593322754 12.41132068634033 C 18.73942756652832 12.66852474212646 13.46415710449219 11.18300819396973 8.749015808105469 11.18300819396973 C 8.53605842590332 11.18300819396973 8.324735641479492 11.18602752685547 8.114545822143555 11.19238090515137 C 3.250486373901367 11.33938026428223 0.84332275390625 13.50701141357422 -0.1421451568603516 12.9993200302124 C -1.127614974975586 12.49164009094238 -1.035043716430664 10.44418048858643 -0.9517440795898438 7.763950347900391 C -0.8684444427490234 5.083730697631836 0.1910648345947266 2.278409957885742 0.1910648345947266 2.278409957885742 C 0.1910648345947266 2.278409957885742 5.028955459594727 1.364200592041016 9.943025588989258 1.059470176696777 C 11.58095264434814 0.9578962326049805 13.22761154174805 0.9240303039550781 14.69485282897949 0.9240303039550781 Z" stroke="none" fill="#080708"/>
      </g>
      <g id="Path_644" data-name="Path 644" transform="translate(-207.345 -1933.707)" fill="none" stroke-linejoin="round">
        <path d="M.47.249C1.434-.577,2.479-.9,4.847-.9S8.393-.055,9,.859s.651,2.416.43,4.407A3.778,3.778,0,0,1,7.479,8.1l-6.1.838S-.7,6.527-.7,4.443-.494,1.076.47.249Z" stroke="none"/>
        <path d="M 4.8467698097229 1.096066474914551 C 2.719359874725342 1.096066474914551 2.230249881744385 1.374456882476807 1.771519660949707 1.767726898193359 C 1.433819770812988 2.057246685028076 1.296069622039795 2.832276821136475 1.296069622039795 4.442836761474609 C 1.296069622039795 5.076495170593262 1.770697593688965 6.024783134460449 2.277166366577148 6.793185234069824 L 6.776739120483398 6.174407958984375 C 6.832863807678223 6.129832744598389 6.897345542907715 6.074506282806396 6.961339950561523 6.010756492614746 C 7.24586009979248 5.727356910705566 7.403979778289795 5.411316871643066 7.444739818572998 5.044566631317139 C 7.69556999206543 2.787826538085938 7.454129695892334 2.14138650894165 7.338679790496826 1.968216896057129 C 6.952869892120361 1.389506816864014 6.114469528198242 1.096066474914551 4.8467698097229 1.096066474914551 M 4.8467698097229 -0.9039335250854492 C 7.21422004699707 -0.9039335250854492 8.393309593200684 -0.05538368225097656 9.002779960632324 0.8588166236877441 C 9.612249374389648 1.773026466369629 9.653809547424316 3.274386882781982 9.432499885559082 5.265506744384766 C 9.211190223693848 7.256616592407227 7.479049682617188 8.096646308898926 7.479049682617188 8.096646308898926 L 1.384039878845215 8.934826850891113 C 1.384039878845215 8.934826850891113 -0.7039299011230469 6.526866912841797 -0.7039299011230469 4.442836761474609 C -0.7039299011230469 2.358806610107422 -0.4944801330566406 1.076026439666748 0.4697799682617188 0.2493467330932617 C 1.43403959274292 -0.5773229598999023 2.479310035705566 -0.9039335250854492 4.8467698097229 -0.9039335250854492 Z" stroke="none" fill="#080708"/>
      </g>
    </g>
  </g>
</svg>
