<svg id="people-24px" xmlns="http://www.w3.org/2000/svg" width="15.128" height="19.058" viewBox="0 0 15.128 19.058">
  <path id="Path_409" data-name="Path 409" d="M0,0H15.128V19.058H0Z" fill="none"/>
  <path id="Path_410" data-name="Path 410" d="M9.951,8.882a1.863,1.863,0,0,0,1.784-1.941A1.863,1.863,0,0,0,9.951,5a1.868,1.868,0,0,0-1.79,1.941A1.868,1.868,0,0,0,9.951,8.882Zm-4.774,0A1.863,1.863,0,0,0,6.961,6.941,1.863,1.863,0,0,0,5.177,5a1.868,1.868,0,0,0-1.79,1.941A1.868,1.868,0,0,0,5.177,8.882Zm0,1.294c-1.39,0-4.177.757-4.177,2.265v1.618H9.354V12.441C9.354,10.933,6.567,10.176,5.177,10.176Zm4.774,0c-.173,0-.37.013-.579.032a2.785,2.785,0,0,1,1.176,2.232v1.618h3.58V12.441C14.128,10.933,11.341,10.176,9.951,10.176Z" fill="#080708"/>
</svg>
