<svg id="Group_342" data-name="Group 342" xmlns="http://www.w3.org/2000/svg" width="17" height="18" viewBox="0 0 17 18">
  <g id="Path_665" data-name="Path 665" transform="translate(0 0.8)" fill="none">
    <path d="M8.5,0A8.5,8.5,0,1,1,0,8.5,8.5,8.5,0,0,1,8.5,0Z" stroke="none"/>
    <path d="M 8.5 1.5 C 4.640190124511719 1.5 1.5 4.640190124511719 1.5 8.5 C 1.5 12.35980987548828 4.640190124511719 15.5 8.5 15.5 C 12.35980987548828 15.5 15.5 12.35980987548828 15.5 8.5 C 15.5 4.640190124511719 12.35980987548828 1.5 8.5 1.5 M 8.5 0 C 13.19441986083984 0 17 3.805580139160156 17 8.5 C 17 13.19441986083984 13.19441986083984 17 8.5 17 C 3.805580139160156 17 0 13.19441986083984 0 8.5 C 0 3.805580139160156 3.805580139160156 0 8.5 0 Z" stroke="none" fill="#666"/>
  </g>
  <text id="_" data-name="$" transform="translate(4.6 14)" fill="#666" font-size="13" font-family="Roboto-Bold, Roboto" font-weight="700"><tspan x="0" y="0">$</tspan></text>
</svg>
