<svg xmlns="http://www.w3.org/2000/svg" width="36.055" height="25.999" viewBox="0 0 36.055 25.999">
  <g id="friends-ico" transform="translate(-744 -2435.202)">
    <g id="Group_734" data-name="Group 734" transform="translate(744 2439.68)">
      <g id="Group_705" data-name="Group 705" transform="translate(0 1.684)">
        <g id="Path_643" data-name="Path 643" transform="translate(1 6.385)">
          <path id="Path_5788" data-name="Path 5788" d="M-.171,1.924a59.343,59.343,0,0,1,6.788-.9,60.693,60.693,0,0,1,6.894,0,18,18,0,0,1,.8,4.952c-.093,2.1-.749,3.234-1.167,3.433s-4.41-1.009-7.8-.9S.283,10.219-.4,9.844s-.622-1.887-.564-3.867A15.388,15.388,0,0,1-.171,1.924Z" fill="none"/>
          <path id="Path_5789" data-name="Path 5789" d="M9.925,2.424c-1.153,0-2.233.033-3.209.1A56.83,56.83,0,0,0,1,3.235,12.755,12.755,0,0,0,.533,6.02l0,.163C.51,6.8.487,7.563.512,8.122A13,13,0,0,1,5.3,7.01C5.455,7,5.62,7,5.786,7c2.123,0,1.3-1.1,2.783-.819.266.05,2.342-.317,2.6-.273.146-.368,1.143.692,1.185-.247a11.9,11.9,0,0,0,0-3.192c-.621-.023-1.469-.046-2.424-.046m0-1.5c.87,0-.665,1.564.256,1.6.507.017,3.355,0,3.355,0a6.379,6.379,0,0,1,.771,3.456c-2.7.111-4.692-.2-5.11,0-.4.19-3.093.361-3.411,2.526q-.222,0-.442.007C1.959,8.617.283,10.219-.4,9.844s-.622-1.887-.564-3.867a15.388,15.388,0,0,1,.8-4.052,59.342,59.342,0,0,1,6.788-.9C7.757.949,8.9.924,9.925.924Z" fill="#666"/>
        </g>
        <g id="Path_644" data-name="Path 644" transform="translate(4.846 0.904)">
          <path id="Path_5790" data-name="Path 5790" d="M.113-.052C.784-.663,1.512-.9,3.16-.9A3.108,3.108,0,0,1,6.053.4a5.461,5.461,0,0,1,.3,3.255,2.771,2.771,0,0,1-1.36,2.091L.749,6.364A6.615,6.615,0,0,1-.7,3.045C-.7,1.506-.558.559.113-.052Z" fill="none"/>
          <path id="Path_5791" data-name="Path 5791" d="M3.16.6c-1.53,0-1.788.235-2.037.461C.894,1.266.8,1.86.8,3.045a3.877,3.877,0,0,0,.65,1.7L4.433,4.31A1.247,1.247,0,0,0,4.86,3.5c.176-1.685,0-2.17-.077-2.3C4.689,1.048,4.406.6,3.16.6m0-1.5A3.108,3.108,0,0,1,6.053.4a5.461,5.461,0,0,1,.3,3.255,2.771,2.771,0,0,1-1.36,2.091L.749,6.364A6.615,6.615,0,0,1-.7,3.045c0-1.539.146-2.487.817-3.1S1.512-.9,3.16-.9Z" fill="#666"/>
        </g>
      </g>
      <g id="Group_706" data-name="Group 706" transform="translate(9.261)">
        <g id="Path_643-2" data-name="Path 643" transform="translate(1 6.385)">
          <path id="Path_5792" data-name="Path 5792" d="M-.171,1.924a59.343,59.343,0,0,1,6.788-.9,60.693,60.693,0,0,1,6.894,0,18,18,0,0,1,.8,4.952c-.093,2.1-.749,3.234-1.167,3.433s-4.41-1.009-7.8-.9S.283,10.219-.4,9.844s-.622-1.887-.564-3.867A15.388,15.388,0,0,1-.171,1.924Z" fill="none"/>
          <path id="Path_5793" data-name="Path 5793" d="M9.925,2.424c-1.153,0-2.233.033-3.209.1C4.456,2.67,4.647,4.685,1.09,4.477c-.2.749-.529.575-.557,1.544l0,.163C.51,6.8.509,7.3.533,7.854A13.859,13.859,0,0,1,5.3,7.01C5.455,7,5.62,7,5.786,7a32.542,32.542,0,0,1,5.847.7c.266.05.565.106.818.151a6.093,6.093,0,0,0,.357-1.944,13.845,13.845,0,0,0-.459-3.44c-.621-.023-1.469-.046-2.424-.046m0-1.5c2.043,0,3.587.1,3.587.1a18,18,0,0,1,.8,4.952c-.093,2.1-.749,3.234-1.167,3.433-.4.19-2.71-.7-4.971-1.233-.148,0-2.727-.7-2.873-.7C1.911,7.586.633,7.74-.171,7.7s-.853.252-.8-1.727a15.388,15.388,0,0,1,.8-4.052s1,3.107,2.681,2.852c.938-.144,2.476-3.645,4.107-3.752C7.757.949,8.9.924,9.925.924Z" fill="#9a9a9a"/>
        </g>
        <g id="Path_644-2" data-name="Path 644" transform="translate(4.846 0.904)">
          <path id="Path_5794" data-name="Path 5794" d="M.113-.052C.784-.663,1.512-.9,3.16-.9A3.108,3.108,0,0,1,6.053.4a5.461,5.461,0,0,1,.3,3.255,2.771,2.771,0,0,1-1.36,2.091L.749,6.364A6.615,6.615,0,0,1-.7,3.045C-.7,1.506-.558.559.113-.052Z" fill="none"/>
          <path id="Path_5795" data-name="Path 5795" d="M3.16.6c-1.53,0-1.788.235-2.037.461C.894,1.266.8,1.86.8,3.045a3.877,3.877,0,0,0,.65,1.7L4.433,4.31A1.247,1.247,0,0,0,4.86,3.5c.176-1.685,0-2.17-.077-2.3C4.689,1.048,4.406.6,3.16.6m0-1.5A3.108,3.108,0,0,1,6.053.4a5.461,5.461,0,0,1,.3,3.255,2.771,2.771,0,0,1-1.36,2.091L.749,6.364A6.615,6.615,0,0,1-.7,3.045c0-1.539.146-2.487.817-3.1S1.512-.9,3.16-.9Z" fill="#9a9a9a"/>
        </g>
      </g>
      <g id="Group_707" data-name="Group 707" transform="translate(5.051 5.236)">
        <g id="Path_643-3" data-name="Path 643" transform="translate(1 6.385)">
          <path id="Path_5796" data-name="Path 5796" d="M.092,8.826a3.984,3.984,0,0,1-.077-.639c-.03-.548-.01-1.229.013-2.019l0-.163A13.524,13.524,0,0,1,.6,2.8a58.042,58.042,0,0,1,6.082-.775c.987-.065,2.078-.1,3.242-.1s2.183.034,2.817.062a15.041,15.041,0,0,1,.566,3.946,5.448,5.448,0,0,1-.571,2.474c-.3-.042-.768-.131-1.2-.212A32.129,32.129,0,0,0,5.786,7.5c-.16,0-.32,0-.474.007a12.636,12.636,0,0,0-4.665,1.1C.465,8.681.257,8.766.092,8.826Z" fill="rgba(255,255,255,0)"/>
          <path id="Path_5797" data-name="Path 5797" d="M9.925,2.924c-1.142,0-2.211.032-3.176.1-2.051.135-4.108.443-5.35.653a11.468,11.468,0,0,0-.366,2.362l0,.163C1.017,6.567,1,6.994,1,7.39A13.037,13.037,0,0,1,5.28,6.51c.165-.005.335-.008.506-.008a32.956,32.956,0,0,1,5.939.71l.386.072a6.476,6.476,0,0,0,.2-1.4,12.33,12.33,0,0,0-.359-2.931c-.563-.018-1.259-.033-2.025-.033m0-2c2.043,0,3.587.1,3.587.1a18,18,0,0,1,.8,4.952c-.093,2.1-.749,3.234-1.167,3.433-.4.19-4.072-.907-7.354-.907q-.222,0-.442.007C1.959,8.617.283,10.219-.4,9.844s-.622-1.887-.564-3.867a15.388,15.388,0,0,1,.8-4.052,59.342,59.342,0,0,1,6.788-.9C7.757.949,8.9.924,9.925.924Z" fill="#080708"/>
        </g>
        <g id="Path_644-3" data-name="Path 644" transform="translate(4.846 0.904)">
          <path id="Path_5798" data-name="Path 5798" d="M1.2,5.287A4.8,4.8,0,0,1,.3,3.045C.3,1.652.429,1.013.786.688,1.167.341,1.56.1,3.16.1,4.682.1,5.076.724,5.206.93a5.634,5.634,0,0,1,.151,2.619,1.767,1.767,0,0,1-.719,1.236Z" fill="rgba(255,255,255,0)"/>
          <path id="Path_5799" data-name="Path 5799" d="M3.16,1.1c-1.331,0-1.52.167-1.7.33A3.912,3.912,0,0,0,1.3,3.045,2.945,2.945,0,0,0,1.71,4.2L4.2,3.839a.734.734,0,0,0,.167-.395,4.881,4.881,0,0,0-.011-1.994C4.155,1.158,3.6,1.1,3.16,1.1m0-2A3.108,3.108,0,0,1,6.053.4a5.461,5.461,0,0,1,.3,3.255,2.771,2.771,0,0,1-1.36,2.091L.749,6.364A6.615,6.615,0,0,1-.7,3.045c0-1.539.146-2.487.817-3.1S1.512-.9,3.16-.9Z" fill="#080708"/>
        </g>
      </g>
    </g>
    <g id="Group_732" data-name="Group 732" transform="translate(765.926 2435.202)">
      <g id="Path_677" data-name="Path 677" transform="translate(1 -0.924)">
        <path id="Path_5800" data-name="Path 5800" d="M.853,10.28l.267-.818L1.368,8.7.575,8.615l-.748-.084a1.943,1.943,0,0,1-.15-.705,20.07,20.07,0,0,1,0-2.071l0-.15A13.031,13.031,0,0,1,.264,2.414a54.144,54.144,0,0,1,5.807-.749C6.987,1.6,8,1.574,9.08,1.574c1.218,0,2.25.039,2.811.066a14.661,14.661,0,0,1,.582,3.916,4.337,4.337,0,0,1-.708,2.6c-.671.152-4.685.281-6.638.344-.69.022-2.244.281-2.31.292l-.169.028-.133.108Z" fill="rgba(255,255,255,0)"/>
        <path id="Path_5801" data-name="Path 5801" d="M9.08,2.224c-1.066,0-2.064.03-2.966.09a52.646,52.646,0,0,0-5.339.669A11.952,11.952,0,0,0,.33,5.624l0,.15a18.442,18.442,0,0,0,.013,2.16l.309.035A1.3,1.3,0,0,1,1.7,8.756l.405-.329a1.3,1.3,0,0,1,.6-.273c.169-.028,1.676-.277,2.4-.3,1.745-.056,5.2-.167,6.287-.295a5.037,5.037,0,0,0,.431-2.032,12.78,12.78,0,0,0-.441-3.259C10.8,2.247,10,2.224,9.08,2.224m0-1.3c1.885,0,3.309.092,3.309.092a16.611,16.611,0,0,1,.734,4.569c-.086,1.934-.691,2.984-1.076,3.167a60.12,60.12,0,0,1-6.9.4c-.654.021-2.224.283-2.224.283L-.449,12.173.5,9.261l-.952-.107c-.633-.346-.573-1.741-.52-3.568A14.2,14.2,0,0,1-.235,1.847a54.752,54.752,0,0,1,6.263-.831C7.08.947,8.137.924,9.08.924Z" fill="#080708"/>
      </g>
      <g id="Ellipse_126" data-name="Ellipse 126" transform="translate(3.884 3.173)" fill="#fff" stroke="#080708" stroke-width="1">
        <circle cx="0.777" cy="0.777" r="0.777" stroke="none"/>
        <circle cx="0.777" cy="0.777" r="0.277" fill="none"/>
      </g>
      <g id="Ellipse_127" data-name="Ellipse 127" transform="translate(6.214 3.173)" fill="#fff" stroke="#080708" stroke-width="1">
        <circle cx="0.777" cy="0.777" r="0.777" stroke="none"/>
        <circle cx="0.777" cy="0.777" r="0.277" fill="none"/>
      </g>
      <g id="Ellipse_128" data-name="Ellipse 128" transform="translate(8.545 3.173)" fill="#fff" stroke="#080708" stroke-width="1">
        <circle cx="0.777" cy="0.777" r="0.777" stroke="none"/>
        <circle cx="0.777" cy="0.777" r="0.277" fill="none"/>
      </g>
    </g>
  </g>
</svg>
