<svg id="brands-and-logotypes" xmlns="http://www.w3.org/2000/svg" width="19" height="19" viewBox="0 0 19 19">
  <path id="Path_80" data-name="Path 80" d="M4.453,106a5.016,5.016,0,0,1,.71-2.578v-3.2H1.96a9.5,9.5,0,0,0,0,11.562h3.2v-3.2A5.016,5.016,0,0,1,4.453,106Z" transform="translate(0 -96.496)" fill="#fbbd00"/>
  <path id="Path_81" data-name="Path 81" d="M198.227,373.668,196,375.894l2.227,2.227a9.428,9.428,0,0,0,5.781-1.96v-3.2h-3.2A5.046,5.046,0,0,1,198.227,373.668Z" transform="translate(-188.727 -359.121)" fill="#0f9d58"/>
  <path id="Path_82" data-name="Path 82" d="M56.026,325.477l-3.2,3.2a9.652,9.652,0,0,0,.822.936,9.438,9.438,0,0,0,6.717,2.782v-4.453A5.049,5.049,0,0,1,56.026,325.477Z" transform="translate(-50.863 -313.399)" fill="#31aa52"/>
  <path id="Path_83" data-name="Path 83" d="M265.5,199.5a9.582,9.582,0,0,0-.156-1.721l-.084-.456H256v4.453h4.507a5.024,5.024,0,0,1-1.925,2.065l3.2,3.2a9.655,9.655,0,0,0,.936-.822A9.438,9.438,0,0,0,265.5,199.5Z" transform="translate(-246.5 -190.001)" fill="#3c79e6"/>
  <path id="Path_84" data-name="Path 84" d="M201.8,5.931l.394.394,3.149-3.149-.394-.394A9.438,9.438,0,0,0,198.227,0L196,2.227l2.227,2.227A5.014,5.014,0,0,1,201.8,5.931Z" transform="translate(-188.727)" fill="#cf2d48"/>
  <path id="Path_85" data-name="Path 85" d="M60.362,4.453V0a9.438,9.438,0,0,0-6.718,2.782,9.643,9.643,0,0,0-.822.936l3.2,3.2a5.049,5.049,0,0,1,4.337-2.469Z" transform="translate(-50.862 0)" fill="#eb4132"/>
</svg>
