<svg xmlns="http://www.w3.org/2000/svg" width="90" height="38.912" viewBox="0 0 90 38.912">
  <g id="Group_442" data-name="Group 442" transform="translate(482 -3068.088)">
    <text id="JOIN_as_CANDIDATE" data-name="JOIN as CANDIDATE" transform="translate(-437 3105)" fill="#707070" font-size="9" font-family="Helvetica-Bold, Helvetica" font-weight="700"><tspan x="-44.176" y="0">JOIN as CANDIDATE</tspan></text>
    <g id="Group_722" data-name="Group 722" transform="translate(-236.818 5002.699)">
      <g id="Path_643" data-name="Path 643" transform="translate(-213 -1924)" fill="none" stroke-linejoin="round">
        <path d="M.388,2.5A105.109,105.109,0,0,1,11.756,1.082a107.848,107.848,0,0,1,11.545,0A26.94,26.94,0,0,1,24.634,8.9c-.155,3.308-1.254,5.1-1.954,5.417s-7.385-1.592-13.055-1.421S1.149,15.592,0,15s-1.041-2.978-.944-6.1A23.084,23.084,0,0,1,.388,2.5Z" stroke="none"/>
        <path d="M 17.29524230957031 2.924030303955078 C 15.3502311706543 2.924030303955078 13.52824115753174 2.975860595703125 11.87991142272949 3.078081130981445 C 7.855427742004395 3.327644348144531 3.827632904052734 3.944735527038574 1.912065505981445 4.266156196594238 C 1.575729370117188 5.383601188659668 1.109334945678711 7.220479965209961 1.055292129516602 8.9593505859375 L 1.047271728515625 9.215900421142578 C 1.010831832885742 10.37717056274414 0.9793605804443359 11.38008117675781 1.01637077331543 12.19782066345215 C 1.028972625732422 12.47627544403076 1.048498153686523 12.69752407073975 1.070314407348633 12.87222003936768 C 1.268318176269531 12.7991361618042 1.479934692382812 12.71750831604004 1.672971725463867 12.64305114746094 C 3.364292144775391 11.99064064025879 5.920230865478516 11.00472068786621 9.564301490783691 10.89459037780762 C 9.824460983276367 10.8867301940918 10.09361171722412 10.88275051116943 10.36429119110107 10.88275051116943 C 13.86166095733643 10.88275051116943 17.57956123352051 11.54312133789062 20.03976058959961 11.9800910949707 C 20.67718315124512 12.09330940246582 21.37032127380371 12.2164249420166 21.85774612426758 12.28806400299072 C 22.13873291015625 11.75786876678467 22.54966735839844 10.63656425476074 22.63579177856445 8.803371429443359 C 22.72453880310059 6.914275169372559 22.17646026611328 4.482565879821777 21.78208351135254 3.012331008911133 C 20.71563529968262 2.970438003540039 19.12195205688477 2.924030303955078 17.29524230957031 2.924030303955078 M 17.29524230957031 0.9240303039550781 C 20.71623229980469 0.9240303039550781 23.30144119262695 1.081911087036133 23.30144119262695 1.081911087036133 C 23.30144119262695 1.081911087036133 24.78900146484375 5.58905029296875 24.63359069824219 8.897220611572266 C 24.47817039489746 12.20538139343262 23.37988090515137 14.001220703125 22.67978096008301 14.31457042694092 C 22.00992393493652 14.61438941955566 15.86065101623535 12.8827543258667 10.36429214477539 12.8827543258667 C 10.11605167388916 12.8827543258667 9.869695663452148 12.88627624511719 9.62468147277832 12.89368057250977 C 3.954727172851562 13.06503105163574 1.148721694946289 15.59179592132568 1.9073486328125e-06 15.00000095367432 C -1.148738861083984 14.40820121765137 -1.040847778320312 12.02151107788086 -0.9437389373779297 8.897220611572266 C -0.8466396331787109 5.772920608520508 0.3884105682373047 2.502810478210449 0.3884105682373047 2.502810478210449 C 0.3884105682373047 2.502810478210449 6.027860641479492 1.437130928039551 11.75612163543701 1.081911087036133 C 13.66542148590088 0.9635076522827148 15.5849027633667 0.9240303039550781 17.29524230957031 0.9240303039550781 Z" stroke="none" fill="#707070"/>
      </g>
      <g id="Path_644" data-name="Path 644" transform="translate(-206.359 -1933.707)" fill="none" stroke-linejoin="round">
        <path d="M.664.44C1.788-.523,3.007-.9,5.766-.9S9.9.085,10.611,1.151s.759,2.816.5,5.137a4.4,4.4,0,0,1-2.277,3.3l-7.1.977S-.7,7.758-.7,5.329-.46,1.4.664.44Z" stroke="none"/>
        <path d="M 5.766423225402832 1.096065521240234 C 3.172732830047607 1.096065521240234 2.55521297454834 1.453645706176758 1.965983390808105 1.958805561065674 C 1.563873291015625 2.303545475006104 1.296063423156738 3.008545398712158 1.296063423156738 5.328705310821533 C 1.296063423156738 6.243026256561279 1.990866661071777 7.51566219329834 2.613097190856934 8.424680709838867 L 8.147465705871582 7.663602828979492 C 8.237417221069336 7.597107887268066 8.35066032409668 7.505280494689941 8.465203285217285 7.391185283660889 C 8.847063064575195 7.010815620422363 9.06877326965332 6.565205574035645 9.12418270111084 6.06673526763916 C 9.402962684631348 3.558595180511475 9.181663513183594 2.612385272979736 8.94692325592041 2.260275363922119 C 8.431913375854492 1.487765312194824 7.361833095550537 1.096065521240234 5.766423225402832 1.096065521240234 M 5.766423225402832 -0.9039344787597656 C 8.526132583618164 -0.9039344787597656 9.900572776794434 0.085205078125 10.61102294921875 1.150875091552734 C 11.32147312164307 2.216555595397949 11.36992263793945 3.966665267944336 11.11194324493408 6.287675380706787 C 10.85395336151123 8.608685493469238 8.834842681884766 9.587895393371582 8.834842681884766 9.587895393371582 L 1.729983329772949 10.56494522094727 C 1.729983329772949 10.56494522094727 -0.7039365768432617 7.758025169372559 -0.7039365768432617 5.328705310821533 C -0.7039365768432617 2.899385452270508 -0.4597768783569336 1.404075622558594 0.6642427444458008 0.440424919128418 C 1.788263320922852 -0.5232143402099609 3.006722927093506 -0.9039344787597656 5.766423225402832 -0.9039344787597656 Z" stroke="none" fill="#707070"/>
      </g>
    </g>
    <path id="Path_670" data-name="Path 670" d="M9,2a7,7,0,1,0,7,7A7,7,0,0,0,9,2Zm3.5,7.7H9.7v2.8H8.3V9.7H5.5V8.3H8.3V5.5H9.7V8.3h2.8Z" transform="translate(-433.173 3068.934)" fill="#666"/>
  </g>
</svg>
