<svg id="share-24px" xmlns="http://www.w3.org/2000/svg" width="23.127" height="23.127" viewBox="0 0 23.127 23.127">
  <path id="Path_301" data-name="Path 301" d="M0,0H23.127V23.127H0Z" fill="none"/>
  <path id="Path_302" data-name="Path 302" d="M17.455,15.568a2.806,2.806,0,0,0-1.889.742l-6.871-4a3.154,3.154,0,0,0,.087-.675,3.154,3.154,0,0,0-.087-.675L15.489,7a2.884,2.884,0,1,0-.925-2.11,3.155,3.155,0,0,0,.087.675L7.857,9.526a2.891,2.891,0,1,0,0,4.221l6.861,4.009a2.719,2.719,0,0,0-.077.626,2.814,2.814,0,1,0,2.814-2.814Z" transform="translate(-0.109 -0.073)" fill="#707070"/>
</svg>
