<svg xmlns="http://www.w3.org/2000/svg" width="52.326" height="71.981" viewBox="0 0 52.326 71.981">
  <g id="Group_6382" data-name="Group 6382" transform="translate(-223.992 -10.047)">
    <path id="Path_735" data-name="Path 735" d="M6.621,7.346,25.223,0h27.1V71.981H0Z" transform="translate(223.992 10.047)" fill="#fdd519"/>
    <text id="ASK_FOR_VOTE" data-name="ASK FOR
VOTE" transform="translate(252.168 60.938)" fill="#080708" font-size="9" font-family="Helvetica-Bold, Helvetica" font-weight="700"><tspan x="-20.25" y="0">ASK FOR</tspan><tspan x="-12.252" y="11">VOTE</tspan></text>
    <g id="Group_944" data-name="Group 944" transform="translate(238.206 20.972)">
      <g id="Path_627" data-name="Path 627" transform="matrix(0.978, -0.208, 0.208, 0.978, 0, 4.626)" fill="#fff">
        <path d="M 21.39138603210449 16.7026538848877 L 17.15066337585449 13.80873680114746 L 17.09937286376953 13.77373695373535 L 17.04302215576172 13.74764633178711 C 16.92887306213379 13.69479656219482 14.2016429901123 12.45143699645996 10.21742343902588 12.28850650787354 C 10.0168628692627 12.28029632568359 9.806412696838379 12.27614688873291 9.591933250427246 12.27614688873291 C 6.635025978088379 12.27614688873291 3.092221021652222 13.04732704162598 1.483980298042297 13.43890571594238 L 0.8323833346366882 6.440044403076172 C 2.166607141494751 6.581525802612305 4.738817691802979 6.8135666847229 7.257392883300781 6.8135666847229 C 8.328292846679688 6.8135666847229 9.28635311126709 6.770436763763428 10.10495281219482 6.685366630554199 C 13.31265258789062 6.352056503295898 13.67510318756104 6.185066699981689 15.06145286560059 5.35417652130127 C 15.40262317657471 5.149706840515137 15.82721328735352 4.895226955413818 16.40398216247559 4.581536769866943 C 17.99460220336914 3.716434717178345 19.38912773132324 2.557045936584473 20.31719779968262 1.694301724433899 L 21.39138603210449 16.7026538848877 Z" stroke="none"/>
        <path d="M 19.67646026611328 3.247641563415527 C 18.84628677368164 3.927600860595703 17.84865951538086 4.649555206298828 16.7623233795166 5.240386962890625 C 16.1993236541748 5.546596527099609 15.79964256286621 5.786136627197266 15.44701290130615 5.99748706817627 C 13.90460300445557 6.921906471252441 13.4210729598999 7.094826698303223 10.18247318267822 7.431356430053711 C 9.338223457336426 7.519086837768555 8.354083061218262 7.563567161560059 7.257392883300781 7.563567161560059 C 5.19862174987793 7.563567161560059 3.105106353759766 7.410634994506836 1.663484573364258 7.276313781738281 L 2.151006698608398 12.51284694671631 C 3.998867034912109 12.09707832336426 7.006992340087891 11.52614688873291 9.591933250427246 11.52614688873291 C 9.816582679748535 11.52614688873291 10.03732299804688 11.53051662445068 10.24806308746338 11.53912734985352 C 14.37966346740723 11.70808696746826 17.23846244812012 13.01164627075195 17.35813331604004 13.06705665588379 L 17.47083282470703 13.11923694610596 L 20.53253746032715 15.20856952667236 L 19.67646026611328 3.247641563415527 M 20.94785308837891 -3.814697265625e-06 L 22.25024223327637 18.19673728942871 L 16.72791290283203 14.42823696136475 C 16.72791290283203 14.42823696136475 14.06773281097412 13.19658660888672 10.1867733001709 13.03787612915039 C 6.305797576904297 12.87917041778564 0.8186206817626953 14.38288688659668 0.8186225891113281 14.38288688659668 L 3.814697265625e-06 5.59001636505127 C 3.814697265625e-06 5.59001636505127 6.016021728515625 6.35622501373291 10.02743339538574 5.939386367797852 C 14.03884315490723 5.522556304931641 13.31554317474365 5.407526969909668 16.0456428527832 3.922677040100098 C 18.77575302124023 2.437836647033691 20.94785308837891 -3.814697265625e-06 20.94785308837891 -3.814697265625e-06 Z" stroke="none" fill="#080708"/>
      </g>
      <line id="Line_39" data-name="Line 39" x2="0.925" y2="5.548" transform="translate(9.199 9.254)" fill="none" stroke="#080708" stroke-width="1"/>
      <line id="Line_40" data-name="Line 40" x1="2.774" y2="0.925" transform="translate(6.425 12.952)" fill="none" stroke="#080708" stroke-width="1"/>
      <g id="Path_628" data-name="Path 628" transform="translate(5.758 16.154) rotate(-17)" fill="#fff">
        <path d="M 5.170164585113525 6.904880523681641 L 2.03909969329834 6.580978393554688 L 0.9092798829078674 0.7499978542327881 L 4.00190544128418 0.7499978542327881 L 5.170164585113525 6.904880523681641 Z" stroke="none"/>
        <path d="M 1.818540573120117 1.499997615814209 L 2.669573783874512 5.892196178436279 L 4.24549388885498 6.055221557617188 L 3.380866289138794 1.499997615814209 L 1.818540573120117 1.499997615814209 M 4.76837158203125e-06 -2.384185791015625e-06 L 4.622934818267822 -2.384185791015625e-06 L 6.09482479095459 7.754538059234619 L 1.408594608306885 7.269757747650146 L 4.76837158203125e-06 -2.384185791015625e-06 Z" stroke="none" fill="#080708"/>
      </g>
      <g id="Rectangle_343" data-name="Rectangle 343" transform="translate(22.087 7.045) rotate(-14)" fill="#fff" stroke="#080708" stroke-linejoin="round" stroke-width="2">
        <rect width="2.774" height="4.623" stroke="none"/>
        <rect x="1" y="1" width="0.774" height="2.623" fill="none"/>
      </g>
      <line id="Line_41" data-name="Line 41" y1="0.925" x2="3.698" transform="translate(26.766 7.406)" fill="none" stroke="#080708" stroke-width="2"/>
      <line id="Line_42" data-name="Line 42" y1="2.774" x2="2.188" transform="translate(25.503 2.783)" fill="none" stroke="#080708" stroke-width="2"/>
      <line id="Line_43" data-name="Line 43" x2="3.112" y2="2.348" transform="translate(26.597 11.53)" fill="none" stroke="#080708" stroke-width="2"/>
    </g>
  </g>
</svg>
