<svg xmlns="http://www.w3.org/2000/svg" width="57.428" height="44.244" viewBox="0 0 57.428 44.244">
  <g id="Group_965" data-name="Group 965" transform="translate(-68.551 1450.51)">
    <g id="Path_627" data-name="Path 627" transform="matrix(0.978, -0.208, 0.208, 0.978, 68.551, -1441.826)" fill="#fff">
      <path d="M 39.76260757446289 30.67144012451172 L 32.38687515258789 25.63817977905273 L 32.26719665527344 25.55650901794434 L 32.13571548461914 25.49563026428223 C 31.91892433166504 25.39525985717773 26.73954582214355 23.03384017944336 19.19338417053223 22.72525024414062 C 18.81227493286133 22.70966911315918 18.41254425048828 22.70175933837891 18.00528526306152 22.70175933837891 C 12.64635848999023 22.70175933837891 6.276578903198242 24.04061317443848 3.08967399597168 24.80141448974609 L 1.94183075428009 12.4723596572876 C 4.548246383666992 12.74013137817383 9.130843162536621 13.13208961486816 13.62311458587646 13.13208961486816 C 15.64507484436035 13.13208961486816 17.45534515380859 13.0505199432373 19.00365447998047 12.88962936401367 C 25.09807586669922 12.25634956359863 25.79107475280762 11.93647003173828 28.44818496704102 10.34396934509277 C 29.08587455749512 9.961779594421387 29.87949562072754 9.486139297485352 30.95587539672852 8.900710105895996 C 33.68427658081055 7.416793823242188 36.10782623291016 5.476620197296143 37.84718704223633 3.90972900390625 L 39.76260757446289 30.67144012451172 Z" stroke="none"/>
      <path d="M 36.34521102905273 7.437707901000977 C 34.98500061035156 8.48518180847168 33.44200897216797 9.540647506713867 31.7920036315918 10.43804931640625 C 30.74774551391602 11.00600051879883 30.00401496887207 11.45174026489258 29.34782409667969 11.84502029418945 C 26.38494491577148 13.62076950073242 25.36357498168945 13.98818016052246 19.18452453613281 14.6302604675293 C 17.57639503479004 14.79735946655273 15.70526504516602 14.88208961486816 13.62311553955078 14.88208961486816 C 10.10968589782715 14.88208961486816 6.543731689453125 14.64643669128418 3.880153656005859 14.41389083862305 L 4.647254943847656 22.65328979492188 C 8.177536010742188 21.88848686218262 13.43438720703125 20.95175933837891 18.00528526306152 20.95175933837891 C 18.43625450134277 20.95175933837891 18.86005592346191 20.96015930175781 19.26489448547363 20.97670936584473 C 27.15494537353516 21.29935836791992 32.64129638671875 23.80123901367188 32.87098693847656 23.90758895874023 L 33.13394546508789 24.02933883666992 L 37.75859832763672 27.18524932861328 L 36.34521102905273 7.437707901000977 M 39.32182312011719 0 L 41.76658630371094 34.15761947631836 L 31.40045547485352 27.08367919921875 C 31.40045547485352 27.08367919921875 26.4069652557373 24.77169990539551 19.12188529968262 24.47378921508789 C 11.83683967590332 24.17587280273438 1.536663055419922 26.99853897094727 1.536666870117188 26.99853897094727 L -3.814697265625e-06 10.49317932128906 C -3.814697265625e-06 10.4931812286377 11.2928524017334 11.93144226074219 18.82278442382812 11.14900016784668 C 26.35272598266602 10.36655044555664 24.9949951171875 10.1506290435791 30.11975479125977 7.363380432128906 C 35.24451446533203 4.576129913330078 39.32182312011719 0 39.32182312011719 0 Z" stroke="none" fill="#080708"/>
    </g>
    <line id="Line_39" data-name="Line 39" x2="1.736" y2="10.413" transform="translate(85.818 -1433.138)" fill="none" stroke="#080708" stroke-width="1"/>
    <line id="Line_40" data-name="Line 40" x1="5.207" y2="1.736" transform="translate(80.612 -1426.196)" fill="none" stroke="#080708" stroke-width="1"/>
    <g id="Path_628" data-name="Path 628" transform="translate(79.359 -1420.186) rotate(-17)" fill="#fff">
      <path d="M 9.591449737548828 12.8569507598877 L 3.905099153518677 12.26871967315674 L 1.818539500236511 1.500003814697266 L 7.435774326324463 1.500003814697266 L 9.591449737548828 12.8569507598877 Z" stroke="none"/>
      <path d="M 3.637079238891602 3.000003814697266 L 5.166079044342041 10.89115715026855 L 7.742116928100586 11.15763854980469 L 6.19370698928833 3.000003814697266 L 3.637079238891602 3.000003814697266 M 1.9073486328125e-06 3.814697265625e-06 L 8.677841186523438 3.814697265625e-06 L 11.44078159332275 14.55626392364502 L 2.644122123718262 13.64628410339355 L 1.9073486328125e-06 3.814697265625e-06 Z" stroke="none" fill="#080708"/>
    </g>
    <g id="Rectangle_343" data-name="Rectangle 343" transform="translate(110.012 -1437.285) rotate(-14)" fill="#fff" stroke="#080708" stroke-linejoin="round" stroke-width="4">
      <rect width="5.207" height="8.678" stroke="none"/>
      <rect x="2" y="2" width="1.207" height="4.678" fill="none"/>
    </g>
    <line id="Line_41" data-name="Line 41" y1="1.736" x2="6.942" transform="translate(118.794 -1436.608)" fill="none" stroke="#080708" stroke-width="2"/>
    <line id="Line_42" data-name="Line 42" y1="5.207" x2="4.107" transform="translate(116.423 -1445.285)" fill="none" stroke="#080708" stroke-width="2"/>
    <line id="Line_43" data-name="Line 43" x2="5.842" y2="4.408" transform="translate(118.476 -1428.866)" fill="none" stroke="#080708" stroke-width="2"/>
    <line id="Line_68" data-name="Line 68" x1="5.207" y2="1.736" transform="translate(80.611 -1428.862)" fill="none" stroke="#080708" stroke-width="1"/>
  </g>
</svg>
