<svg xmlns="http://www.w3.org/2000/svg" width="93" height="50" viewBox="0 0 93 50">
  <g id="Group_6382" data-name="Group 6382" transform="translate(200.318 -3063.5)">
    <path id="Path_725" data-name="Path 725" d="M3.843,3.371,46.177,0H93V50H0Z" transform="translate(-200.318 3063.5)" fill="#fdd519"/>
    <text id="ASK_FOR_VOTE" data-name="ASK FOR VOTE" transform="translate(-153 3105)" fill="#080708" font-size="9" font-family="Helvetica-Bold, Helvetica" font-weight="700"><tspan x="-33.752" y="0">ASK FOR VOTE</tspan></text>
    <g id="Group_680" data-name="Group 680" transform="translate(-235.025 4520.51)">
      <g id="Path_627" data-name="Path 627" transform="matrix(0.978, -0.208, 0.208, 0.978, 68.551, -1446.41)" fill="#fff">
        <path d="M 18.57489585876465 14.13535785675049 L 15.3893461227417 11.96151447296143 L 15.32095623016357 11.91484451293945 L 15.24582576751709 11.88006401062012 C 15.14218616485596 11.83207416534424 12.66627597808838 10.70318412780762 9.069235801696777 10.5560941696167 C 8.886945724487305 10.54864406585693 8.695825576782227 10.5448637008667 8.501185417175293 10.5448637008667 C 6.059487819671631 10.5448637008667 3.179874658584595 11.12865734100342 1.613263010978699 11.4950008392334 L 1.109383463859558 6.082854747772217 C 2.370611667633057 6.208144664764404 4.420440196990967 6.37403392791748 6.432156085968018 6.37403392791748 C 7.392786026000977 6.37403392791748 8.253536224365234 6.335204124450684 8.990495681762695 6.258624076843262 C 11.90510559082031 5.955763816833496 12.23872566223145 5.801474094390869 13.52108573913574 5.032914161682129 C 13.82077598571777 4.853293895721436 14.19375610351562 4.629754066467285 14.69878578186035 4.35508394241333 C 15.86724853515625 3.719584465026855 16.91836357116699 2.908864974975586 17.7212963104248 2.209086656570435 L 18.57489585876465 14.13535785675049 Z" stroke="none"/>
        <path d="M 16.85898971557617 4.168759346008301 C 16.33734130859375 4.543913841247559 15.77144813537598 4.910013198852539 15.17656517028809 5.233553886413574 C 14.68990516662598 5.498244285583496 14.34205627441406 5.706724166870117 14.03515625 5.890653610229492 C 12.58014583587646 6.762703895568848 12.08224582672119 6.942744255065918 9.093855857849121 7.253273963928223 C 8.322715759277344 7.333403587341309 7.42719554901123 7.37403392791748 6.432155609130859 7.37403392791748 C 4.938465118408203 7.37403392791748 3.425115585327148 7.284470558166504 2.216464996337891 7.186494827270508 L 2.504011154174805 10.27501678466797 C 4.171220779418945 9.928562164306641 6.475066184997559 9.544864654541016 8.501175880432129 9.544864654541016 C 8.709405899047852 9.544864654541016 8.914276123046875 9.548923492431641 9.110075950622559 9.556934356689453 C 12.90363597869873 9.712054252624512 15.55496597290039 10.92120361328125 15.66597557067871 10.97260475158691 L 15.81623554229736 11.04217338562012 L 17.42975234985352 12.14325046539307 L 16.85898971557617 4.168759346008301 M 18.56573486328125 3.814697265625e-06 L 19.72003555297852 16.12746429443359 L 14.82567596435547 12.78751373291016 C 14.82567596435547 12.78751373291016 12.4680061340332 11.69591426849365 9.028366088867188 11.55526351928711 C 5.588739395141602 11.41460132598877 0.7255382537841797 12.74732398986816 0.7255363464355469 12.74732398986816 L -3.814697265625e-06 4.954334259033203 C -3.814697265625e-06 4.954334259033203 5.331903457641602 5.63341236114502 8.88714599609375 5.263983726501465 C 12.44239616394043 4.894554138183594 11.80134582519531 4.792604446411133 14.22099590301514 3.476604461669922 C 16.64064598083496 2.160614013671875 18.56573486328125 3.814697265625e-06 18.56573486328125 3.814697265625e-06 Z" stroke="none" fill="#080708"/>
      </g>
      <line id="Line_39" data-name="Line 39" x2="0.819" y2="4.917" transform="translate(76.704 -1442.308)" fill="none" stroke="#080708" stroke-width="1"/>
      <line id="Line_40" data-name="Line 40" x1="2.458" y2="0.819" transform="translate(74.245 -1439.03)" fill="none" stroke="#080708" stroke-width="1"/>
      <g id="Path_628" data-name="Path 628" transform="translate(73.654 -1436.192) rotate(-17)" fill="none">
        <path d="M0,0H4.1L5.4,6.873l-4.153-.43Z" stroke="none"/>
        <path d="M 2.424724102020264 1.999999523162842 L 2.929730415344238 4.606327056884766 L 2.935967445373535 4.606971740722656 L 2.441134691238403 1.999999523162842 L 2.424724102020264 1.999999523162842 M 4.291534423828125e-06 -4.76837158203125e-07 L 4.097224235534668 -4.76837158203125e-07 L 5.40174388885498 6.872719764709473 L 1.248424053192139 6.443069458007812 L 4.291534423828125e-06 -4.76837158203125e-07 Z" stroke="none" fill="#080708"/>
      </g>
      <g id="Rectangle_343" data-name="Rectangle 343" transform="translate(88.126 -1444.266) rotate(-14)" fill="#fff" stroke="#080708" stroke-linejoin="round" stroke-width="2">
        <rect width="2.458" height="4.097" stroke="none"/>
        <rect x="1" y="1" width="0.458" height="2.097" fill="none"/>
      </g>
      <line id="Line_41" data-name="Line 41" y1="0.819" x2="3.278" transform="translate(92.273 -1443.946)" fill="none" stroke="#080708" stroke-width="2"/>
      <line id="Line_42" data-name="Line 42" y1="2.458" x2="1.939" transform="translate(91.154 -1448.043)" fill="none" stroke="#080708" stroke-width="2"/>
      <line id="Line_43" data-name="Line 43" x2="2.758" y2="2.081" transform="translate(92.123 -1440.291)" fill="none" stroke="#080708" stroke-width="2"/>
    </g>
  </g>
</svg>
