<svg xmlns="http://www.w3.org/2000/svg" width="68" height="41" viewBox="0 0 68 41">
  <g id="Group_751" data-name="Group 751" transform="translate(193 -3066)">
    <text id="ASK_FOR_VOTE" data-name="ASK FOR VOTE" transform="translate(-159 3105)" fill="#080708" font-size="9" font-family="Helvetica-Bold, Helvetica" font-weight="700"><tspan x="-33.752" y="0">ASK FOR VOTE</tspan></text>
    <g id="Group_684" data-name="Group 684" transform="translate(-244.025 4516.51)">
      <g id="Path_627" data-name="Path 627" transform="matrix(0.978, -0.208, 0.208, 0.978, 70.004, -1441.478)" fill="none">
        <path d="M-.584,1.8a59.565,59.565,0,0,0,10.845.378C14.6,1.73,13.818,1.606,16.771,0a22.682,22.682,0,0,0,5.3-4.243l1.409,19.681-5.973-4.076a20.369,20.369,0,0,0-7.075-1.5C6.237,9.687.3,11.313.3,11.313Z" stroke="none"/>
        <path d="M 20.37219619750977 0.01076030731201172 C 19.58316993713379 0.6199722290039062 18.68619728088379 1.234938621520996 17.72640609741211 1.756950378417969 C 17.12441635131836 2.084360122680664 16.69573593139648 2.341290473937988 16.31750679016113 2.567970275878906 C 14.61304664611816 3.589510440826416 14.02529716491699 3.800890445709229 10.46845722198486 4.170490264892578 C 9.54246711730957 4.26671028137207 8.464937210083008 4.315500259399414 7.265796661376953 4.315500259399414 C 5.233139038085938 4.315500259399414 3.170116424560547 4.178583145141602 1.633684158325195 4.044063091278076 L 2.079257965087891 8.82996654510498 C 4.112606048583984 8.38877010345459 7.150704383850098 7.845990180969238 9.790737152099609 7.845990180969238 C 10.03879737854004 7.845990180969238 10.28273677825928 7.850820541381836 10.51579666137695 7.860350608825684 C 15.05861663818359 8.046120643615723 18.21682739257812 9.486320495605469 18.34904670715332 9.547540664672852 L 18.49931716918945 9.617110252380371 L 21.19122695922852 11.45410251617432 L 20.37219619750977 0.01076030731201172 M 22.0728874206543 -4.242639541625977 L 23.48150634765625 15.43832015991211 L 17.50874710083008 11.36245059967041 C 17.50874710083008 11.36245059967041 14.63159656524658 10.03033065795898 10.43407726287842 9.858680725097656 C 6.236566543579102 9.687028884887695 0.3018169403076172 11.31339073181152 0.3018169403076172 11.31339073181152 L -0.5835838317871094 1.803330421447754 C -0.5835838317871094 1.803330421447754 5.923131942749023 2.632034301757812 10.26174736022949 2.18120002746582 C 14.60034656524658 1.73037052154541 13.81804656982422 1.605959892272949 16.77083587646484 0 C 19.72361755371094 -1.605959892272949 22.0728874206543 -4.242639541625977 22.0728874206543 -4.242639541625977 Z" stroke="none" fill="#080708"/>
      </g>
      <line id="Line_39" data-name="Line 39" x2="1" y2="6" transform="translate(78.5 -1440.5)" fill="none" stroke="#080708" stroke-width="1"/>
      <line id="Line_40" data-name="Line 40" x1="3" y2="1" transform="translate(75.5 -1436.5)" fill="none" stroke="#080708" stroke-width="1"/>
      <g id="Path_628" data-name="Path 628" transform="translate(74.778 -1433.038) rotate(-17)" fill="none">
        <path d="M0,0H5L6.592,8.387,1.523,7.863Z" stroke="none"/>
        <path d="M 2.424719333648682 1.999998092651367 L 3.204802751541138 6.025975704193115 L 4.126179695129395 6.121289730072021 L 3.34390926361084 1.999998092651367 L 2.424719333648682 1.999998092651367 M -2.384185791015625e-06 -1.9073486328125e-06 L 4.999997615814209 -1.9073486328125e-06 L 6.591957569122314 8.387038230895996 L 1.523497581481934 7.862718105316162 L -2.384185791015625e-06 -1.9073486328125e-06 Z" stroke="none" fill="#080708"/>
      </g>
      <g id="Rectangle_343" data-name="Rectangle 343" transform="translate(92.44 -1442.891) rotate(-14)" fill="#fff" stroke="#080708" stroke-linejoin="round" stroke-width="2">
        <rect width="3" height="5" stroke="none"/>
        <rect x="1" y="1" width="1" height="3" fill="none"/>
      </g>
      <line id="Line_41" data-name="Line 41" y1="1" x2="4" transform="translate(97.5 -1442.5)" fill="none" stroke="#080708" stroke-width="2"/>
      <line id="Line_42" data-name="Line 42" y1="3" x2="2.366" transform="translate(96.134 -1447.5)" fill="none" stroke="#080708" stroke-width="2"/>
      <line id="Line_43" data-name="Line 43" x2="3.366" y2="2.54" transform="translate(97.317 -1438.04)" fill="none" stroke="#080708" stroke-width="2"/>
    </g>
  </g>
</svg>
