<svg xmlns="http://www.w3.org/2000/svg" width="21.143" height="16.218" viewBox="0 0 21.143 16.218">
  <g id="Group_1101" data-name="Group 1101" transform="translate(-174 1889.085)">
    <g id="Path_678" data-name="Path 678" transform="translate(181 -1886.009)" fill="#fff" stroke-linejoin="round">
      <path d="M 12.25455188751221 11.23361682891846 L 10.34932804107666 9.667572975158691 L 10.21564769744873 9.557692527770996 L 10.0450382232666 9.528822898864746 C 9.974588394165039 9.516902923583984 8.311187744140625 9.236592292785645 7.574548244476318 9.212642669677734 C 5.467583656311035 9.144176483154297 1.126798629760742 9.003090858459473 0.4413190186023712 8.83588695526123 C 0.2753939628601074 8.685234069824219 -0.2612358331680298 7.852114200592041 -0.3439519703388214 5.958652496337891 C -0.4094546437263489 4.45932149887085 0.06129331141710281 2.50384783744812 0.2922000288963318 1.647823214530945 C 0.8869804739952087 1.618532657623291 2.009599447250366 1.574032664299011 3.339937925338745 1.574032664299011 C 4.498397827148438 1.574032664299011 5.584318161010742 1.607272744178772 6.567528247833252 1.672842741012573 C 8.210548400878906 1.782412767410278 9.682618141174316 1.9873126745224 10.09464836120605 2.047492742538452 C 11.38381385803223 2.2341148853302 12.33383560180664 2.401719570159912 12.82246017456055 2.492423057556152 C 13.02178382873535 3.146841764450073 13.42005729675293 4.614219665527344 13.46027755737305 6.005802631378174 L 13.4650182723999 6.168612480163574 C 13.49235820770264 7.105782508850098 13.51597785949707 7.91514253616333 13.45522785186768 8.51765251159668 C 13.41043090820312 8.961932182312012 13.33112525939941 9.15715217590332 13.28166007995605 9.238979339599609 L 12.45930767059326 9.332642555236816 L 11.67068767547607 9.422462463378906 L 11.91421794891357 10.177903175354 L 12.25455188751221 11.23361682891846 Z" stroke="none"/>
      <path d="M 3.339637756347656 2.224032402038574 C 2.320609092712402 2.224032402038574 1.424877166748047 2.250420570373535 0.8000507354736328 2.275735855102539 C 0.5504179000854492 3.29135799407959 0.2561044692993164 4.801409721374512 0.3054275512695312 5.930282592773438 C 0.3607616424560547 7.196981906890869 0.6367340087890625 7.935325622558594 0.8060474395751953 8.236946105957031 C 1.920013427734375 8.378532409667969 5.698909759521484 8.5013427734375 7.595657825469971 8.562992095947266 C 8.362598419189453 8.587912559509277 9.972448348999023 8.857302665710449 10.15348815917969 8.887932777404785 C 10.37707805633545 8.925772666931152 10.58688831329346 9.021432876586914 10.76207828521729 9.165432929992676 L 11.28948974609375 9.59895133972168 C 11.32415962219238 9.485352516174316 11.37459564208984 9.375863075256348 11.44033813476562 9.27391242980957 C 11.65154838562012 8.946402549743652 11.99854850769043 8.730913162231445 12.38575839996338 8.686813354492188 L 12.78934001922607 8.640846252441406 C 12.87092113494873 8.093729019165039 12.83944129943848 7.015053749084473 12.81528759002686 6.187572479248047 L 12.81054782867432 6.024582862854004 C 12.77889919281006 4.929448127746582 12.50945472717285 3.774832725524902 12.3109130859375 3.060275077819824 C 11.78223609924316 2.966517448425293 10.99317455291748 2.834343910217285 10.00068855285645 2.690672874450684 C 9.594568252563477 2.631352424621582 8.143668174743652 2.42939281463623 6.52426815032959 2.321402549743652 C 5.555488109588623 2.256793022155762 4.484127998352051 2.224032402038574 3.339748382568359 2.224032402038574 L 3.339637756347656 2.224032402038574 M 3.339941024780273 0.9240293502807617 C 4.349891662597656 0.9240322113037109 5.483340263366699 0.9490976333618164 6.610777854919434 1.024282455444336 C 7.987468242645264 1.116092681884766 9.35545825958252 1.282622337341309 10.18858814239502 1.404322624206543 C 12.15235805511475 1.688592910766602 13.32337760925293 1.926562309265137 13.32337760925293 1.926562309265137 C 13.32337760925293 1.926562309265137 14.05266761779785 4.003082275390625 14.11000823974609 5.987022876739502 C 14.16734790802002 7.970962524414062 14.2310676574707 9.486513137817383 13.55273818969727 9.862302780151367 L 12.53286838531494 9.978462219238281 L 13.55273818969727 13.14209270477295 L 9.936588287353516 10.16971302032471 C 9.936588287353516 10.16971302032471 8.25457763671875 9.885092735290527 7.553428173065186 9.862302780151367 C 4.205338478088379 9.75349235534668 0.5737981796264648 9.626043319702148 0.1603879928588867 9.42706298828125 C -0.2530221939086914 9.228082656860352 -0.9015617370605469 8.087722778320312 -0.9933319091796875 5.987022876739502 C -1.085111618041992 3.886332511901855 -0.2067022323608398 1.024282455444336 -0.2067022323608398 1.024282455444336 C -0.2067022323608398 1.024282455444336 1.319854736328125 0.9240236282348633 3.339941024780273 0.9240293502807617 Z" stroke="none" fill="#080708"/>
    </g>
    <g id="Path_677" data-name="Path 677" transform="translate(175 -1890.009)" fill="#fff" stroke-linejoin="round">
      <path d="M 1.712822079658508 12.49350929260254 L 1.884859561920166 11.96689224243164 L 2.266149520874023 10.7997522354126 L 1.045989513397217 10.66262149810791 L 0.1765646040439606 10.56490802764893 C 0.1277222484350204 10.43686580657959 0.05829232931137085 10.17199420928955 0.02407956682145596 9.656412124633789 C -0.02054043300449848 8.984071731567383 0.004629566799849272 8.13297176361084 0.03376956656575203 7.147491931915283 L 0.03945956751704216 6.954541683197021 C 0.08441214263439178 5.419578075408936 0.5098962187767029 3.800718545913696 0.7550946474075317 2.984689712524414 C 1.993973135948181 2.758921146392822 5.054005146026611 2.242031574249268 8.113339424133301 2.040701866149902 C 9.289789199829102 1.963281869888306 10.58953952789307 1.924031853675842 11.97647953033447 1.924031853675842 C 13.46144485473633 1.924031853675842 14.72745227813721 1.969526410102844 15.46916675567627 2.003716707229614 C 15.75409126281738 3.073469400405884 16.25570869445801 5.225650787353516 16.18241882324219 6.88103199005127 C 16.09424591064453 8.87281322479248 15.55176830291748 9.852697372436523 15.34985160827637 10.09039688110352 C 14.36298751831055 10.27930164337158 9.34182071685791 10.44035053253174 6.883349418640137 10.51919174194336 C 5.999899387359619 10.547532081604 4.101679801940918 10.86105155944824 3.888139486312866 10.8967113494873 L 3.6278395652771 10.94017219543457 L 3.422889471054077 11.10642147064209 L 1.712822079658508 12.49350929260254 Z" stroke="none"/>
      <path d="M 11.97647953033447 2.924032211303711 C 10.61130905151367 2.924032211303711 9.333660125732422 2.96256160736084 8.179009437561035 3.038541793823242 C 5.589470863342285 3.208955764770508 2.994565010070801 3.610222816467285 1.546270370483398 3.860026359558105 C 1.327191352844238 4.683941841125488 1.071821212768555 5.864258766174316 1.039029121398926 6.983821868896484 L 1.033339500427246 7.177051544189453 C 1.009574890136719 7.980613708496094 0.9794340133666992 8.999893188476562 1.023932456970215 9.653841018676758 L 1.157670021057129 9.668871879577637 C 1.729084014892578 9.733098983764648 2.243840217590332 10.039870262146 2.572286605834961 10.50876045227051 L 2.792939186096191 10.32978248596191 C 3.061609268188477 10.11185169219971 3.382219314575195 9.967342376708984 3.72343921661377 9.910362243652344 C 4.082819938659668 9.850351333618164 5.922619819641113 9.549491882324219 6.851299285888672 9.519712448120117 C 8.837024688720703 9.456021308898926 13.17278861999512 9.31696891784668 14.73815631866455 9.161237716674805 C 14.9072322845459 8.769809722900391 15.13157367706299 8.007466316223145 15.18339920043945 6.836801528930664 C 15.2349796295166 5.671740531921387 14.95383358001709 4.125772476196289 14.68259239196777 2.97260856628418 C 13.96548080444336 2.947139739990234 13.02572441101074 2.924032211303711 11.97647953033447 2.924032211303711 M 11.97648048400879 0.9240303039550781 C 14.40292835235596 0.9240303039550781 16.23657035827637 1.042861938476562 16.23657035827637 1.042861938476562 C 16.23657035827637 1.042861938476562 17.29167938232422 4.435281753540039 17.18144035339355 6.925261497497559 C 17.07120895385742 9.415241241455078 16.29220962524414 10.76692199707031 15.79563999176025 11.00278186798096 C 15.29906940460205 11.23863220214844 10.9370002746582 11.38970184326172 6.915410041809082 11.5186824798584 C 6.073209762573242 11.54569244384766 4.052839279174805 11.88305187225342 4.052839279174805 11.88305187225342 L -0.2907295227050781 15.40625190734863 L 0.9342994689941406 11.65636157989502 L -0.2907295227050781 11.5186824798584 C -1.105520248413086 11.07325172424316 -1.028989791870117 9.27684211730957 -0.9601097106933594 6.925261497497559 C -0.8912410736083984 4.573671340942383 -0.01523971557617188 2.11234188079834 -0.01523971557617188 2.11234188079834 C -0.01523971557617188 2.11234188079834 3.984719276428223 1.310232162475586 8.047679901123047 1.042861938476562 C 9.401913642883301 0.9537439346313477 10.76336765289307 0.9240303039550781 11.97648048400879 0.9240303039550781 Z" stroke="none" fill="#080708"/>
    </g>
    <g id="Ellipse_126" data-name="Ellipse 126" transform="translate(179 -1885)" fill="#fff" stroke="#080708" stroke-width="1">
      <circle cx="1" cy="1" r="1" stroke="none"/>
      <circle cx="1" cy="1" r="0.5" fill="none"/>
    </g>
    <g id="Ellipse_127" data-name="Ellipse 127" transform="translate(182 -1885)" fill="#fff" stroke="#080708" stroke-width="1">
      <circle cx="1" cy="1" r="1" stroke="none"/>
      <circle cx="1" cy="1" r="0.5" fill="none"/>
    </g>
    <g id="Ellipse_128" data-name="Ellipse 128" transform="translate(185 -1885)" fill="#fff" stroke="#080708" stroke-width="1">
      <circle cx="1" cy="1" r="1" stroke="none"/>
      <circle cx="1" cy="1" r="0.5" fill="none"/>
    </g>
  </g>
</svg>
