<svg xmlns="http://www.w3.org/2000/svg" width="18.944" height="18.458" viewBox="0 0 18.944 18.458">
  <path id="Path_668" data-name="Path 668" d="M48.027,36c-1.311-3.321-4.188-5.752-4.983-6.653a9.385,9.385,0,0,1-1.591-2.426,6.153,6.153,0,0,1-.437-2.267A4.553,4.553,0,0,1,45.669,20a4.785,4.785,0,0,1,3.818,1.79A4.785,4.785,0,0,1,53.306,20a4.408,4.408,0,0,1,3.3,1.352,4.491,4.491,0,0,1,1.352,3.3,5.68,5.68,0,0,1-1.034,3.222,21.01,21.01,0,0,1-2.595,2.987A35,35,0,0,1,48.027,36Z" transform="translate(-40.016 -19)" fill="none" stroke="#080708" stroke-width="2"/>
</svg>
