<svg xmlns="http://www.w3.org/2000/svg" xmlns:xlink="http://www.w3.org/1999/xlink" width="18" height="18" viewBox="0 0 18 18">
  <defs>
    <clipPath id="clip-path">
      <rect id="Rectangle_17851" data-name="Rectangle 17851" width="18" height="18" transform="translate(-21605 -9517)" fill="#fff"/>
    </clipPath>
  </defs>
  <g id="fb-btn-ico" transform="translate(21605 9517)" clip-path="url(#clip-path)">
    <g id="facebook-logo" transform="translate(-21622.076 -9516)">
      <path id="Path_187" data-name="Path 187" d="M29.776,0,27.857,0a3.37,3.37,0,0,0-3.549,3.642V5.321H22.379a.3.3,0,0,0-.3.3V8.055a.3.3,0,0,0,.3.3h1.929V14.5a.3.3,0,0,0,.3.3h2.517a.3.3,0,0,0,.3-.3V8.357h2.256a.3.3,0,0,0,.3-.3V5.622a.3.3,0,0,0-.3-.3H27.429V3.9c0-.684.163-1.031,1.054-1.031h1.293a.3.3,0,0,0,.3-.3V.3A.3.3,0,0,0,29.776,0Z" fill="#fff"/>
    </g>
  </g>
</svg>
