<svg xmlns="http://www.w3.org/2000/svg" width="15.502" height="12.323" viewBox="0 0 15.502 12.323">
  <g id="filter-gray-ico" transform="translate(-20.081 -25.102)">
    <path id="Path_433" data-name="Path 433" d="M79.162,81.7H69.927a1.878,1.878,0,0,0-3.612,0H64.873a.637.637,0,0,0,0,1.273h1.442a1.878,1.878,0,0,0,3.612,0h9.236a.637.637,0,0,0,0-1.273ZM68.121,83.061a.728.728,0,1,1,.693-.727A.711.711,0,0,1,68.121,83.061Z" transform="translate(-44.186 -55.232)" fill="#666"/>
    <path id="Path_434" data-name="Path 434" d="M79.162,210.231H77.721a1.878,1.878,0,0,0-3.612,0H64.873a.637.637,0,0,0,0,1.273h9.236a1.878,1.878,0,0,0,3.612,0h1.442a.637.637,0,0,0,0-1.273Zm-3.247,1.364a.728.728,0,1,1,.693-.727A.711.711,0,0,1,75.915,211.594Z" transform="translate(-44.186 -179.604)" fill="#666"/>
    <path id="Path_435" data-name="Path 435" d="M79.162,338.763H72.525a1.878,1.878,0,0,0-3.612,0h-4.04a.637.637,0,0,0,0,1.273h4.04a1.878,1.878,0,0,0,3.612,0h6.638a.637.637,0,0,0,0-1.273Zm-8.443,1.364a.728.728,0,1,1,.693-.727A.711.711,0,0,1,70.719,340.127Z" transform="translate(-44.186 -303.975)" fill="#666"/>
  </g>
</svg>
