<svg xmlns="http://www.w3.org/2000/svg" width="19.474" height="17.842" viewBox="0 0 19.474 17.842">
  <g id="filter" transform="translate(0 0)">
    <path id="Path_433" data-name="Path 433" d="M82.979,81.966h-11.6a2.393,2.393,0,0,0-4.537,0H65.029a.762.762,0,1,0,0,1.523H66.84a2.393,2.393,0,0,0,4.537,0h11.6a.762.762,0,1,0,0-1.523ZM69.108,83.6a.87.87,0,1,1,.87-.87A.871.871,0,0,1,69.108,83.6Z" transform="translate(-64.267 -80.334)" fill="#ffd306"/>
    <path id="Path_434" data-name="Path 434" d="M82.979,210.5H81.168a2.393,2.393,0,0,0-4.537,0h-11.6a.762.762,0,0,0,0,1.523h11.6a2.393,2.393,0,0,0,4.537,0h1.811a.762.762,0,1,0,0-1.523Zm-4.08,1.632a.87.87,0,1,1,.87-.87A.871.871,0,0,1,78.9,212.131Z" transform="translate(-64.267 -202.34)" fill="#ffd306"/>
    <path id="Path_435" data-name="Path 435" d="M82.979,339.032H74.641a2.393,2.393,0,0,0-4.537,0H65.029a.762.762,0,1,0,0,1.523H70.1a2.393,2.393,0,0,0,4.537,0h8.338a.762.762,0,1,0,0-1.523Zm-10.607,1.632a.87.87,0,1,1,.87-.87A.871.871,0,0,1,72.372,340.664Z" transform="translate(-64.267 -324.345)" fill="#ffd306"/>
  </g>
</svg>
