<svg id="gps_fixed-24px" xmlns="http://www.w3.org/2000/svg" width="30" height="30" viewBox="0 0 30 30">
  <path id="Path_438" data-name="Path 438" d="M0,0H30V30H0Z" fill="none"/>
  <path id="Path_439" data-name="Path 439" d="M15.22,10.049a5.171,5.171,0,1,0,5.171,5.171A5.169,5.169,0,0,0,15.22,10.049Zm11.557,3.878A11.627,11.627,0,0,0,16.512,3.663V1H13.927V3.663A11.627,11.627,0,0,0,3.663,13.927H1v2.585H3.663A11.627,11.627,0,0,0,13.927,26.776v2.663h2.585V26.776A11.627,11.627,0,0,0,26.776,16.512h2.663V13.927H26.776ZM15.22,24.269a9.049,9.049,0,1,1,9.049-9.049A9.042,9.042,0,0,1,15.22,24.269Z" transform="translate(-0.22 -0.22)" fill="#ffd306"/>
</svg>
