<svg xmlns="http://www.w3.org/2000/svg" width="18" height="17.566" viewBox="0 0 18 17.566">
  <g id="Heart_button" data-name="Heart button" transform="translate(1 1)">
    <path id="Path_674" data-name="Path 674" d="M47.637,35.109c-1.238-3.136-3.955-5.431-4.706-6.283a8.862,8.862,0,0,1-1.5-2.291,5.81,5.81,0,0,1-.413-2.141A4.3,4.3,0,0,1,45.41,20a4.519,4.519,0,0,1,3.606,1.69A4.519,4.519,0,0,1,52.621,20a4.162,4.162,0,0,1,3.117,1.277,4.241,4.241,0,0,1,1.277,3.117,5.364,5.364,0,0,1-.977,3.042,19.839,19.839,0,0,1-2.45,2.82A33.056,33.056,0,0,1,47.637,35.109Z" transform="translate(-41.016 -20)" fill="none" stroke="#080708" stroke-width="2"/>
  </g>
</svg>
