<svg id="people-24px" xmlns="http://www.w3.org/2000/svg" width="22" height="21.68" viewBox="0 0 22 21.68">
  <path id="Path_409" data-name="Path 409" d="M0,0H22V21.679H0Z" fill="none"/>
  <g id="Group_728" data-name="Group 728" transform="translate(2 2.958)">
    <g id="Group_705" data-name="Group 705" transform="translate(0 1.233)">
      <g id="Path_643" data-name="Path 643" transform="translate(1 4.43)" fill="none" stroke-linejoin="round">
        <path d="M-.393,1.657A43.467,43.467,0,0,1,4.579,1a44.456,44.456,0,0,1,5.05,0,13.187,13.187,0,0,1,.583,3.627c-.068,1.535-.548,2.369-.855,2.514s-3.23-.739-5.71-.66S-.06,7.732-.563,7.457s-.455-1.382-.413-2.833A11.271,11.271,0,0,1-.393,1.657Z" stroke="none"/>
        <path d="M 7.002033233642578 2.124031066894531 C 6.159442901611328 2.124031066894531 5.370833396911621 2.147811412811279 4.658102989196777 2.194721221923828 C 3.04755973815918 2.300702095031738 1.433856010437012 2.551326274871826 0.5440597534179688 2.705235481262207 C 0.4071846008300781 3.21718168258667 0.2445468902587891 3.960303783416748 0.2240629196166992 4.659871101379395 L 0.2205429077148438 4.779031276702881 C 0.2087526321411133 5.17786693572998 0.1944341659545898 5.662239074707031 0.2035799026489258 6.047784805297852 C 0.9651994705200195 5.739144325256348 2.069467067718506 5.329650402069092 3.608542919158936 5.280291557312012 C 3.726123332977295 5.276511192321777 3.847913265228271 5.274600982666016 3.970523357391357 5.274600982666016 C 5.535243034362793 5.274600982666016 7.182023048400879 5.584991455078125 8.271733283996582 5.79038143157959 C 8.437807083129883 5.821683406829834 8.621768951416016 5.856357574462891 8.786962509155273 5.885830879211426 C 8.882336616516113 5.618161201477051 8.985730171203613 5.185049057006836 9.012883186340332 4.571660995483398 C 9.04521369934082 3.841411590576172 8.866886138916016 2.870840549468994 8.697336196899414 2.154916286468506 C 8.251676559448242 2.138843059539795 7.661956787109375 2.124031066894531 7.002033233642578 2.124031066894531 M 7.002035140991211 0.9240312576293945 C 8.498325347900391 0.9240312576293945 9.629053115844727 0.9973111152648926 9.629053115844727 0.9973111152648926 C 9.629053115844727 0.9973111152648926 10.27969360351562 3.089271068572998 10.21171283721924 4.624741554260254 C 10.14374351501465 6.160201072692871 9.663363456726074 6.993731498718262 9.357152938842773 7.139171600341797 C 9.064166069030762 7.278326034545898 6.374546527862549 6.474600791931152 3.970518589019775 6.474600791931152 C 3.861941337585449 6.474600791931152 3.754209041595459 6.476234436035156 3.647043228149414 6.479671478271484 C 1.167091369628906 6.559211254119873 -0.060211181640625 7.73198938369751 -0.5626468658447266 7.457311153411865 C -1.06508731842041 7.182631492614746 -1.01789665222168 6.074861526489258 -0.9754266738891602 4.624741554260254 C -0.9329566955566406 3.17461109161377 -0.392756462097168 1.656811237335205 -0.392756462097168 1.656811237335205 C -0.392756462097168 1.656811237335205 2.073853015899658 1.162181377410889 4.57930326461792 0.9973111152648926 C 5.414405822753906 0.942354679107666 6.253958702087402 0.9240312576293945 7.002035140991211 0.9240312576293945 Z" stroke="none" fill="#757575"/>
      </g>
      <g id="Path_644" data-name="Path 644" transform="translate(3.738 0.904)" fill="none" stroke-linejoin="round">
        <path d="M-.106-.28A2.9,2.9,0,0,1,2.126-.9,2.277,2.277,0,0,1,4.245.05a4,4,0,0,1,.219,2.384,2.029,2.029,0,0,1-1,1.532L.361,4.419A4.845,4.845,0,0,1-.7,1.989C-.7.861-.6.167-.106-.28Z" stroke="none"/>
        <path d="M 2.126107692718506 0.2960646152496338 C 1.044537782669067 0.2960646152496338 0.8704178333282471 0.4544746875762939 0.7020277976989746 0.6076745986938477 C 0.4960677623748779 0.7950446605682373 0.4960677623748779 1.693634748458862 0.4960677623748779 1.988914728164673 C 0.4960677623748779 2.293558120727539 0.696129322052002 2.740338802337646 0.9237425327301025 3.12439751625061 L 3.016895532608032 2.818933486938477 C 3.111602783203125 2.727708101272583 3.244589805603027 2.55810546875 3.270677804946899 2.309004783630371 C 3.403497695922852 1.04095458984375 3.259207725524902 0.7363348007202148 3.22893762588501 0.6881546974182129 C 3.168017864227295 0.5911846160888672 2.982617855072021 0.2960646152496338 2.126107692718506 0.2960646152496338 M 2.126107692718506 -0.903935432434082 C 3.333157777786255 -0.903935432434082 3.934317827224731 -0.4448254108428955 4.245057582855225 0.04979467391967773 C 4.555797576904297 0.5444247722625732 4.576987743377686 1.356724739074707 4.464147567749023 2.434014797210693 C 4.351317882537842 3.511294603347778 3.468177795410156 3.965784788131714 3.468177795410156 3.965784788131714 L 0.3606276512145996 4.419284820556641 C 0.3606276512145996 4.419284820556641 -0.7039322853088379 3.116464614868164 -0.7039322853088379 1.988914728164673 C -0.7039322853088379 0.8613545894622803 -0.597142219543457 0.1673147678375244 -0.1055123805999756 -0.2799553871154785 C 0.386117696762085 -0.7272253036499023 0.9190578460693359 -0.903935432434082 2.126107692718506 -0.903935432434082 Z" stroke="none" fill="#757575"/>
      </g>
    </g>
    <g id="Group_706" data-name="Group 706" transform="translate(6.783)">
      <g id="Path_643-2" data-name="Path 643" transform="translate(1 4.43)" fill="none" stroke-linejoin="round">
        <path d="M-.393,1.657A43.467,43.467,0,0,1,4.579,1a44.456,44.456,0,0,1,5.05,0,13.187,13.187,0,0,1,.583,3.627c-.068,1.535-.548,2.369-.855,2.514s-3.23-.739-5.71-.66S-.06,7.732-.563,7.457s-.455-1.382-.413-2.833A11.271,11.271,0,0,1-.393,1.657Z" stroke="none"/>
        <path d="M 7.002033233642578 2.124031066894531 C 6.159442901611328 2.124031066894531 5.370833396911621 2.147811412811279 4.658102989196777 2.194721221923828 C 3.04755973815918 2.300702095031738 1.433856010437012 2.551326274871826 0.5440597534179688 2.705235481262207 C 0.4071846008300781 3.21718168258667 0.2445468902587891 3.960303783416748 0.2240629196166992 4.659871101379395 L 0.2205429077148438 4.779031276702881 C 0.2087526321411133 5.17786693572998 0.1944341659545898 5.662239074707031 0.2035799026489258 6.047784805297852 C 0.9651994705200195 5.739144325256348 2.069467067718506 5.329650402069092 3.608542919158936 5.280291557312012 C 3.726123332977295 5.276511192321777 3.847913265228271 5.274600982666016 3.970523357391357 5.274600982666016 C 5.535243034362793 5.274600982666016 7.182023048400879 5.584991455078125 8.271733283996582 5.79038143157959 C 8.437807083129883 5.821683406829834 8.621768951416016 5.856357574462891 8.786962509155273 5.885830879211426 C 8.882336616516113 5.618161201477051 8.985730171203613 5.185049057006836 9.012883186340332 4.571660995483398 C 9.04521369934082 3.841411590576172 8.866886138916016 2.870840549468994 8.697336196899414 2.154916286468506 C 8.251676559448242 2.138843059539795 7.661956787109375 2.124031066894531 7.002033233642578 2.124031066894531 M 7.002035140991211 0.9240312576293945 C 8.498325347900391 0.9240312576293945 9.629053115844727 0.9973111152648926 9.629053115844727 0.9973111152648926 C 9.629053115844727 0.9973111152648926 10.27969360351562 3.089271068572998 10.21171283721924 4.624741554260254 C 10.14374351501465 6.160201072692871 9.663363456726074 6.993731498718262 9.357152938842773 7.139171600341797 C 9.064166069030762 7.278326034545898 6.374546527862549 6.474600791931152 3.970518589019775 6.474600791931152 C 3.861941337585449 6.474600791931152 3.754209041595459 6.476234436035156 3.647043228149414 6.479671478271484 C 1.167091369628906 6.559211254119873 -0.060211181640625 7.73198938369751 -0.5626468658447266 7.457311153411865 C -1.06508731842041 7.182631492614746 -1.01789665222168 6.074861526489258 -0.9754266738891602 4.624741554260254 C -0.9329566955566406 3.17461109161377 -0.392756462097168 1.656811237335205 -0.392756462097168 1.656811237335205 C -0.392756462097168 1.656811237335205 2.073853015899658 1.162181377410889 4.57930326461792 0.9973111152648926 C 5.414405822753906 0.942354679107666 6.253958702087402 0.9240312576293945 7.002035140991211 0.9240312576293945 Z" stroke="none" fill="#666"/>
      </g>
      <g id="Path_644-2" data-name="Path 644" transform="translate(3.738 0.904)" fill="none" stroke-linejoin="round">
        <path d="M-.106-.28A2.9,2.9,0,0,1,2.126-.9,2.277,2.277,0,0,1,4.245.05a4,4,0,0,1,.219,2.384,2.029,2.029,0,0,1-1,1.532L.361,4.419A4.845,4.845,0,0,1-.7,1.989C-.7.861-.6.167-.106-.28Z" stroke="none"/>
        <path d="M 2.126107692718506 0.2960646152496338 C 1.044537782669067 0.2960646152496338 0.8704178333282471 0.4544746875762939 0.7020277976989746 0.6076745986938477 C 0.4960677623748779 0.7950446605682373 0.4960677623748779 1.693634748458862 0.4960677623748779 1.988914728164673 C 0.4960677623748779 2.293558120727539 0.696129322052002 2.740338802337646 0.9237425327301025 3.12439751625061 L 3.016895532608032 2.818933486938477 C 3.111602783203125 2.727708101272583 3.244589805603027 2.55810546875 3.270677804946899 2.309004783630371 C 3.403497695922852 1.04095458984375 3.259207725524902 0.7363348007202148 3.22893762588501 0.6881546974182129 C 3.168017864227295 0.5911846160888672 2.982617855072021 0.2960646152496338 2.126107692718506 0.2960646152496338 M 2.126107692718506 -0.903935432434082 C 3.333157777786255 -0.903935432434082 3.934317827224731 -0.4448254108428955 4.245057582855225 0.04979467391967773 C 4.555797576904297 0.5444247722625732 4.576987743377686 1.356724739074707 4.464147567749023 2.434014797210693 C 4.351317882537842 3.511294603347778 3.468177795410156 3.965784788131714 3.468177795410156 3.965784788131714 L 0.3606276512145996 4.419284820556641 C 0.3606276512145996 4.419284820556641 -0.7039322853088379 3.116464614868164 -0.7039322853088379 1.988914728164673 C -0.7039322853088379 0.8613545894622803 -0.597142219543457 0.1673147678375244 -0.1055123805999756 -0.2799553871154785 C 0.386117696762085 -0.7272253036499023 0.9190578460693359 -0.903935432434082 2.126107692718506 -0.903935432434082 Z" stroke="none" fill="#666"/>
      </g>
    </g>
    <g id="Group_707" data-name="Group 707" transform="translate(3.7 3.835)">
      <g id="Path_643-3" data-name="Path 643" transform="translate(1 4.43)" fill="#fff" stroke-linejoin="round">
        <path d="M -0.288111686706543 6.880198001861572 C -0.3189219236373901 6.80162525177002 -0.3626287579536438 6.638864040374756 -0.3844268620014191 6.320530891418457 C -0.4129668474197388 5.903690814971924 -0.3973168432712555 5.374290943145752 -0.3791868686676025 4.761301040649414 L -0.3756868541240692 4.642300605773926 C -0.3476220667362213 3.684093236923218 -0.08201770484447479 2.679959774017334 0.06894327700138092 2.180251836776733 C 0.8265055418014526 2.041970729827881 2.722755908966064 1.720778226852417 4.618703365325928 1.596020817756653 C 5.34453296661377 1.548250794410706 6.146403312683105 1.524030804634094 7.002033233642578 1.524030804634094 C 7.924891471862793 1.524030804634094 8.712444305419922 1.552630424499512 9.168783187866211 1.57378876209259 C 9.344154357910156 2.230286121368408 9.657859802246094 3.5691237449646 9.612302780151367 4.598200798034668 C 9.561750411987305 5.74016284942627 9.270511627197266 6.344071388244629 9.126509666442871 6.546422481536865 C 8.912867546081543 6.521795749664307 8.531584739685059 6.449930667877197 8.160552978515625 6.380000591278076 C 7.092792987823486 6.178740978240967 5.47916316986084 5.874600887298584 3.970513105392456 5.874600887298584 C 3.854413032531738 5.874600887298584 3.739103078842163 5.876410961151123 3.627813100814819 5.87998104095459 C 2.075093030929565 5.929780960083008 0.9807631373405457 6.377730846405029 0.2566131353378296 6.674150943756104 C 0.06973551958799362 6.750648498535156 -0.1525295972824097 6.84162712097168 -0.288111686706543 6.880198001861572 Z" stroke="none"/>
        <path d="M 7.002033233642578 2.124031066894531 C 6.159442901611328 2.124031066894531 5.370833396911621 2.147811412811279 4.658102989196777 2.194721221923828 C 3.04755973815918 2.300702095031738 1.433856010437012 2.551326274871826 0.5440597534179688 2.705235481262207 C 0.4071846008300781 3.21718168258667 0.2445468902587891 3.960303783416748 0.2240629196166992 4.659871101379395 L 0.2205429077148438 4.779031276702881 C 0.2087526321411133 5.17786693572998 0.1944341659545898 5.662239074707031 0.2035799026489258 6.047784805297852 C 0.9651994705200195 5.739144325256348 2.069467067718506 5.329650402069092 3.608542919158936 5.280291557312012 C 3.726123332977295 5.276511192321777 3.847913265228271 5.274600982666016 3.970523357391357 5.274600982666016 C 5.535243034362793 5.274600982666016 7.182023048400879 5.584991455078125 8.271733283996582 5.79038143157959 C 8.437807083129883 5.821683406829834 8.621768951416016 5.856357574462891 8.786962509155273 5.885830879211426 C 8.882336616516113 5.618161201477051 8.985730171203613 5.185049057006836 9.012883186340332 4.571660995483398 C 9.04521369934082 3.841411590576172 8.866886138916016 2.870840549468994 8.697336196899414 2.154916286468506 C 8.251676559448242 2.138843059539795 7.661956787109375 2.124031066894531 7.002033233642578 2.124031066894531 M 7.002035140991211 0.9240312576293945 C 8.498325347900391 0.9240312576293945 9.629053115844727 0.9973111152648926 9.629053115844727 0.9973111152648926 C 9.629053115844727 0.9973111152648926 10.27969360351562 3.089271068572998 10.21171283721924 4.624741554260254 C 10.14374351501465 6.160201072692871 9.663363456726074 6.993731498718262 9.357152938842773 7.139171600341797 C 9.064166069030762 7.278326034545898 6.374546527862549 6.474600791931152 3.970518589019775 6.474600791931152 C 3.861941337585449 6.474600791931152 3.754209041595459 6.476234436035156 3.647043228149414 6.479671478271484 C 1.167091369628906 6.559211254119873 -0.060211181640625 7.73198938369751 -0.5626468658447266 7.457311153411865 C -1.06508731842041 7.182631492614746 -1.01789665222168 6.074861526489258 -0.9754266738891602 4.624741554260254 C -0.9329566955566406 3.17461109161377 -0.392756462097168 1.656811237335205 -0.392756462097168 1.656811237335205 C -0.392756462097168 1.656811237335205 2.073853015899658 1.162181377410889 4.57930326461792 0.9973111152648926 C 5.414405822753906 0.942354679107666 6.253958702087402 0.9240312576293945 7.002035140991211 0.9240312576293945 Z" stroke="none" fill="#666"/>
      </g>
      <g id="Path_644-3" data-name="Path 644" transform="translate(3.738 0.904)" fill="#fff" stroke-linejoin="round">
        <path d="M 0.6282063126564026 3.773881912231445 C 0.3240971267223358 3.333639860153198 -0.1039322689175606 2.583226442337036 -0.1039322689175606 1.988914728164673 C -0.1039322689175606 0.9115946888923645 0.001317729009315372 0.4340046942234039 0.2982577383518219 0.1638546884059906 C 0.6466377377510071 -0.1530953049659729 1.009017705917358 -0.303935319185257 2.126107692718506 -0.303935319185257 C 2.925607681274414 -0.303935319185257 3.452527761459351 -0.08382530510425568 3.736997842788696 0.3689746856689453 C 4.028557777404785 0.8330646753311157 3.907267808914185 1.991004705429077 3.86740779876709 2.371514797210693 C 3.806196928024292 2.955973863601685 3.419188022613525 3.280208110809326 3.260906219482422 3.389678955078125 L 0.6282063126564026 3.773881912231445 Z" stroke="none"/>
        <path d="M 2.126107692718506 0.2960646152496338 C 1.044537782669067 0.2960646152496338 0.8704178333282471 0.4544746875762939 0.7020277976989746 0.6076745986938477 C 0.4960677623748779 0.7950446605682373 0.4960677623748779 1.693634748458862 0.4960677623748779 1.988914728164673 C 0.4960677623748779 2.293558120727539 0.696129322052002 2.740338802337646 0.9237425327301025 3.12439751625061 L 3.016895532608032 2.818933486938477 C 3.111602783203125 2.727708101272583 3.244589805603027 2.55810546875 3.270677804946899 2.309004783630371 C 3.403497695922852 1.04095458984375 3.259207725524902 0.7363348007202148 3.22893762588501 0.6881546974182129 C 3.168017864227295 0.5911846160888672 2.982617855072021 0.2960646152496338 2.126107692718506 0.2960646152496338 M 2.126107692718506 -0.903935432434082 C 3.333157777786255 -0.903935432434082 3.934317827224731 -0.4448254108428955 4.245057582855225 0.04979467391967773 C 4.555797576904297 0.5444247722625732 4.576987743377686 1.356724739074707 4.464147567749023 2.434014797210693 C 4.351317882537842 3.511294603347778 3.468177795410156 3.965784788131714 3.468177795410156 3.965784788131714 L 0.3606276512145996 4.419284820556641 C 0.3606276512145996 4.419284820556641 -0.7039322853088379 3.116464614868164 -0.7039322853088379 1.988914728164673 C -0.7039322853088379 0.8613545894622803 -0.597142219543457 0.1673147678375244 -0.1055123805999756 -0.2799553871154785 C 0.386117696762085 -0.7272253036499023 0.9190578460693359 -0.903935432434082 2.126107692718506 -0.903935432434082 Z" stroke="none" fill="#666"/>
      </g>
    </g>
  </g>
</svg>
