<svg xmlns="http://www.w3.org/2000/svg" width="26.326" height="19.041" viewBox="0 0 26.326 19.041">
  <g id="Group_6383" data-name="Group 6383" transform="translate(-33.5)">
    <g id="Group_722" data-name="Group 722" transform="translate(33.5)">
      <g id="Path_643" data-name="Path 643" transform="translate(1 7.622)" fill="none" stroke-linejoin="round">
        <path d="M.029,2.094A77.873,77.873,0,0,1,8.451,1.041a79.9,79.9,0,0,1,8.554,0,19.96,19.96,0,0,1,.987,5.79c-.115,2.451-.929,3.781-1.448,4.014s-5.472-1.18-9.672-1.053-6.28,2-7.131,1.561-.771-2.207-.7-4.521A17.1,17.1,0,0,1,.029,2.094Z" stroke="none"/>
        <path d="M 12.55463790893555 2.924034118652344 C 11.12425804138184 2.924034118652344 9.785167694091797 2.962094306945801 8.574577331542969 3.037174224853516 C 5.823818206787109 3.20775032043457 3.068413734436035 3.612377166748047 1.563567161560059 3.858202934265137 C 1.33725643157959 4.661269187927246 1.074432373046875 5.807936668395996 1.040698051452637 6.893363952636719 L 1.034747123718262 7.08367395401001 C 1.01545524597168 7.698460102081299 0.9920635223388672 8.443901062011719 1.004500389099121 9.041841506958008 C 2.288740158081055 8.549113273620605 4.171278953552246 7.872844696044922 6.811177253723145 7.793064117431641 C 7.008957862854004 7.787084102630615 7.213657379150391 7.784053802490234 7.419607162475586 7.784053802490234 C 10.05643749237061 7.784053802490234 12.83802795410156 8.278114318847656 14.67865753173828 8.605053901672363 C 14.98506259918213 8.659476280212402 15.32683753967285 8.720179557800293 15.62586784362793 8.769843101501465 C 15.7804651260376 8.357426643371582 15.94907379150391 7.687445163726807 15.99370765686035 6.737383842468262 C 16.0468578338623 5.606018543243408 15.75580596923828 4.099974632263184 15.47478580474854 2.974781036376953 C 14.71474933624268 2.948558807373047 13.698166847229 2.924034118652344 12.55463790893555 2.924034118652344 M 12.55463981628418 0.9240350723266602 C 15.08919906616211 0.9240350723266602 17.00453758239746 1.041004180908203 17.00453758239746 1.041004180908203 C 17.00453758239746 1.041004180908203 18.10664749145508 4.380264282226562 17.99150848388672 6.831233978271484 C 17.87635803222656 9.282203674316406 17.06265830993652 10.61271381378174 16.5439567565918 10.84487342834473 C 16.04767227172852 11.06700229644775 11.49178695678711 9.784058570861816 7.419611930847168 9.784058570861816 C 7.23569393157959 9.784058570861816 7.053165435791016 9.786667823791504 6.871637344360352 9.792154312133789 C 2.670868873596191 9.919103622436523 0.591949462890625 11.79114532470703 -0.2591323852539062 11.35269355773926 C -1.110212326049805 10.91423416137695 -1.030271530151367 9.145983695983887 -0.9583320617675781 6.831233978271484 C -0.8863925933837891 4.516493797302246 0.02863693237304688 2.093724250793457 0.02863693237304688 2.093724250793457 C 0.02863693237304688 2.093724250793457 4.206817626953125 1.304183959960938 8.450787544250488 1.041004180908203 C 9.865361213684082 0.953282356262207 11.2874755859375 0.9240350723266602 12.55463981628418 0.9240350723266602 Z" stroke="none" fill="#080708"/>
      </g>
      <g id="Path_644" data-name="Path 644" transform="translate(5.843 0.904)" fill="none" stroke-linejoin="round">
        <path d="M.31.092c.833-.714,1.736-1,3.78-1S7.153-.171,7.679.618,8.241,2.7,8.05,4.424A3.263,3.263,0,0,1,6.363,6.869L1.1,7.593S-.7,5.514-.7,3.714-.523.806.31.092Z" stroke="none"/>
        <path d="M 4.089859962463379 1.096072196960449 C 2.211470127105713 1.096072196960449 1.8927001953125 1.369362354278564 1.611470222473145 1.610462188720703 C 1.296070098876953 1.880862236022949 1.296070098876953 3.260402202606201 1.296070098876953 3.713732242584229 C 1.296070098876953 4.155636787414551 1.623955726623535 4.845141887664795 2.00546932220459 5.4497389793396 L 5.642578125 4.949569702148438 C 5.669380664825439 4.926334381103516 5.69716739654541 4.900962352752686 5.723609924316406 4.874622344970703 C 6.020780086517334 4.578612327575684 6.052180290222168 4.296102046966553 6.0625 4.203271865844727 C 6.27869987487793 2.258101940155029 6.060689926147461 1.799622058868408 6.015040397644043 1.727842330932617 C 5.666930198669434 1.205682277679443 4.775979995727539 1.096072196960449 4.089859962463379 1.096072196960449 M 4.089859962463379 -0.9039278030395508 C 6.134479999542236 -0.9039278030395508 7.152780055999756 -0.1710977554321289 7.679140090942383 0.6184420585632324 C 8.205500602722168 1.407982349395752 8.241390228271484 2.704612016677856 8.050260543823242 4.424212455749512 C 7.85912036895752 6.14381217956543 6.363190174102783 6.869292259216309 6.363190174102783 6.869292259216309 L 1.099310398101807 7.593172073364258 C 1.099310398101807 7.593172073364258 -0.7039299011230469 5.513572216033936 -0.7039299011230469 3.713732242584229 C -0.7039299011230469 1.913892269134521 -0.5230398178100586 0.8060321807861328 0.309730052947998 0.09208202362060547 C 1.142500400543213 -0.6218576431274414 2.045230388641357 -0.9039278030395508 4.089859962463379 -0.9039278030395508 Z" stroke="none" fill="#080708"/>
      </g>
    </g>
    <path id="Path_670" data-name="Path 670" d="M7,2a5,5,0,1,0,5,5A5,5,0,0,0,7,2ZM9.5,7.5h-2v2h-1v-2h-2v-1h2v-2h1v2h2Z" transform="translate(47.826 2.846)" fill="#080708"/>
  </g>
</svg>
