<svg xmlns="http://www.w3.org/2000/svg" width="13.891" height="19.495" viewBox="0 0 13.891 19.495">
  <path id="Path_669" data-name="Path 669" d="M253.945,28.478a2.141,2.141,0,0,0,1.516.6,2,2,0,0,0,1.476-.6,2.072,2.072,0,0,0,.638-1.516,2.184,2.184,0,0,0-2.115-2.115,2.071,2.071,0,0,0-1.516.638,2.005,2.005,0,0,0-.6,1.477A2.141,2.141,0,0,0,253.945,28.478Zm-2.714-5.707a5.765,5.765,0,0,1,4.23-1.756,5.995,5.995,0,0,1,5.946,5.946,7.768,7.768,0,0,1-.639,2.833,16.413,16.413,0,0,1-1.476,2.993q-.879,1.4-1.755,2.634-.839,1.2-1.437,1.915l-.639.678q-.24-.279-.638-.718-.4-.479-1.437-1.836-1.037-1.4-1.835-2.674a21.786,21.786,0,0,1-1.4-2.953,8.073,8.073,0,0,1-.638-2.873A5.7,5.7,0,0,1,251.231,22.771Z" transform="translate(-248.516 -20.016)" fill="none" stroke="#080708" stroke-width="2"/>
</svg>
