<svg xmlns="http://www.w3.org/2000/svg" width="23.467" height="18" viewBox="0 0 23.467 18">
  <g id="Group_733" data-name="Group 733" transform="translate(-174 1889.085)">
    <g id="Path_678" data-name="Path 678" transform="translate(181.659 -1885.569)" fill="#080708" stroke-linejoin="round">
      <path d="M 13.85356426239014 12.57609558105469 L 11.55100917816162 10.68345832824707 L 11.41732883453369 10.57357883453369 L 11.24671936035156 10.54470825195312 C 11.16871929168701 10.53150844573975 9.327178955078125 10.22117805480957 8.514369010925293 10.19475841522217 C 6.150972366333008 10.11795330047607 1.267759084701538 9.959249496459961 0.5649689435958862 9.77023983001709 C 0.3373256325721741 9.592948913574219 -0.2538907527923584 8.559635162353516 -0.3432210981845856 6.514958381652832 C -0.4176242053508759 4.811744689941406 0.1269894987344742 2.584456205368042 0.3788520395755768 1.658594369888306 C 1.025157690048218 1.626143217086792 2.299430131912231 1.574028491973877 3.81679892539978 1.574028491973877 C 5.104128837585449 1.574028491973877 6.310958862304688 1.610978484153748 7.403779029846191 1.683858513832092 C 10.39185237884521 1.883119821548462 13.37381935119629 2.409600496292114 14.39671897888184 2.602010726928711 C 14.61437797546387 3.3099524974823 15.07478332519531 4.979167938232422 15.12052917480469 6.562108516693115 L 15.1257791519165 6.742708683013916 C 15.15620899200439 7.785348415374756 15.18247890472412 8.685808181762695 15.11458873748779 9.359158515930176 C 15.05948257446289 9.905706405639648 14.95621681213379 10.13013362884521 14.89175510406494 10.21982192993164 L 13.94626903533936 10.32749843597412 L 13.15763854980469 10.41731834411621 L 13.40116882324219 11.17276859283447 L 13.85356426239014 12.57609558105469 Z" stroke="none"/>
      <path d="M 3.816788673400879 2.224028587341309 L 3.816799163818359 2.224028587341309 C 2.624045372009277 2.224028587341309 1.583043098449707 2.256533622741699 0.8851184844970703 2.285957336425781 C 0.6008167266845703 3.421779632568359 0.2490549087524414 5.179413795471191 0.3061590194702148 6.486588478088379 C 0.3730487823486328 8.017647743225098 0.7325096130371094 8.867626190185547 0.9188356399536133 9.173295974731445 C 2.07951545715332 9.335278511047363 6.38765811920166 9.475299835205078 8.535489082336426 9.545108795166016 C 9.377298355102539 9.572458267211914 11.15520858764648 9.869988441467285 11.35515880584717 9.903818130493164 C 11.57875919342041 9.941658020019531 11.7885684967041 10.03731918334961 11.96375846862793 10.18131828308105 L 12.72997760772705 10.81112957000732 C 12.75399780273438 10.62014389038086 12.82040500640869 10.43453216552734 12.9272985458374 10.26877784729004 C 13.13850879669189 9.941258430480957 13.48550891876221 9.725778579711914 13.87271881103516 9.681678771972656 L 14.42192935943604 9.619131088256836 C 14.44963932037354 9.476351737976074 14.478590965271 9.256305694580078 14.49414920806885 8.924898147583008 C 14.52191925048828 8.333358764648438 14.5006685256958 7.605018615722656 14.47605895996094 6.76166820526123 L 14.47079849243164 6.580888748168945 C 14.43393898010254 5.305536270141602 14.11060905456543 3.960808753967285 13.88640785217285 3.16887092590332 C 12.63475513458252 2.942816734313965 10.00005531311035 2.508434295654297 7.360538959503174 2.332418441772461 C 6.282118797302246 2.26050853729248 5.089828491210938 2.224038124084473 3.816788673400879 2.224028587341309 M 3.816803932189941 0.9240322113037109 C 4.937724113464355 0.9240350723266602 6.195712089538574 0.9518537521362305 7.447029113769531 1.035298347473145 C 11.20120906829834 1.285648345947266 14.89718914031982 2.036708831787109 14.89718914031982 2.036708831787109 C 14.89718914031982 2.036708831787109 15.70661926269531 4.341398239135742 15.77025890350342 6.543328285217285 C 15.83389854431152 8.745258331298828 15.90460872650146 10.42732810974121 15.15174865722656 10.8444185256958 L 14.01981925964355 10.97332859039307 L 15.15174865722656 14.48456859588623 L 11.13826942443848 11.18559837341309 C 11.13826942443848 11.18559837341309 9.271449089050293 10.86970901489258 8.493259429931641 10.8444185256958 C 4.777288436889648 10.72364807128906 0.7467193603515625 10.58218860626221 0.2878885269165039 10.36134910583496 C -0.1709413528442383 10.14049911499023 -0.8907413482666016 8.874837875366211 -0.9926013946533203 6.543328285217285 C -1.094450950622559 4.211818695068359 -0.1195306777954102 1.035298347473145 -0.1195306777954102 1.035298347473145 C -0.1195306777954102 1.035298347473145 1.574758529663086 0.9240245819091797 3.816803932189941 0.9240322113037109 Z" stroke="none" fill="#fff"/>
    </g>
    <g id="Path_677" data-name="Path 677" transform="translate(175 -1890.009)" fill="#080708" stroke-linejoin="round">
      <path d="M 1.790754675865173 14.08476448059082 L 2.097393989562988 13.14612102508545 L 2.478684186935425 11.97897052764893 L 1.258514046669006 11.84185028076172 L 0.2291049659252167 11.72616195678711 C 0.1699356734752655 11.59903621673584 0.07855004817247391 11.31183910369873 0.03256409242749214 10.70207118988037 C -0.02491590566933155 9.940011024475098 0.004024093970656395 8.96134090423584 0.03753409534692764 7.828130722045898 L 0.04384409263730049 7.613940715789795 C 0.09548930823802948 5.850694179534912 0.5914942026138306 4.002164840698242 0.8617045879364014 3.115180492401123 C 2.193655729293823 2.871016502380371 5.650552749633789 2.281253814697266 9.107483863830566 2.053760766983032 C 10.41558456420898 1.967680692672729 11.86056423187256 1.924030661582947 13.40229415893555 1.924030661582947 C 15.10689640045166 1.924030661582947 16.5523624420166 1.978001594543457 17.36407661437988 2.016342401504517 C 17.67759704589844 3.180877208709717 18.2639217376709 5.64808177947998 18.18014335632324 7.540430545806885 C 18.07699012756348 9.870575904846191 17.42654037475586 10.96401786804199 17.20392608642578 11.19832229614258 C 16.19087219238281 11.41268253326416 10.51879405975342 11.5946044921875 7.753084182739258 11.68330097198486 C 6.762974262237549 11.71506118774414 4.53758430480957 12.08512115478516 4.443334102630615 12.10086059570312 L 4.18303394317627 12.14432048797607 L 3.978084087371826 12.31056118011475 L 1.790754675865173 14.08476448059082 Z" stroke="none"/>
      <path d="M 13.40229415893555 2.924030303955078 C 11.88239479064941 2.924030303955078 10.45950412750244 2.966950416564941 9.173144340515137 3.051600456237793 C 6.20546817779541 3.246898651123047 3.232549667358398 3.714252471923828 1.650432586669922 3.990054130554199 C 1.396800994873047 4.919758796691895 1.082242965698242 6.317592620849609 1.043413162231445 7.643210411071777 L 1.037094116210938 7.857680320739746 C 1.01069450378418 8.7506103515625 0.9857540130615234 9.594020843505859 1.009693145751953 10.25678062438965 C 1.017955780029297 10.48542404174805 1.031303405761719 10.66762542724609 1.046352386474609 10.81170654296875 L 1.370193481445312 10.84810066223145 C 1.967874526977539 10.91527080535889 2.503594398498535 11.24785041809082 2.828944206237793 11.75369071960449 C 2.857599258422852 11.79824256896973 2.884337425231934 11.84369277954102 2.909177780151367 11.88998031616211 L 3.34813404083252 11.53393077850342 C 3.616804122924805 11.31600093841553 3.937403678894043 11.17149066925049 4.278624534606934 11.11451053619385 C 4.521634101867676 11.07394027709961 6.682744026184082 10.7171106338501 7.721024513244629 10.6838207244873 C 10.17195606231689 10.60521697998047 15.00104522705078 10.45032978057861 16.61527633666992 10.2723331451416 C 16.82005882263184 9.850700378417969 17.11684417724609 8.948144912719727 17.18112373352051 7.496200561523438 C 17.24184417724609 6.124653816223145 16.89625549316406 4.293412208557129 16.58061408996582 2.984189987182617 C 15.76400184631348 2.953537940979004 14.65309047698975 2.924030303955078 13.40229415893555 2.924030303955078 M 13.40229797363281 0.9240322113037109 C 16.09535598754883 0.9240322113037109 18.13047409057617 1.05592155456543 18.13047409057617 1.05592155456543 C 18.13047409057617 1.05592155456543 19.301513671875 4.821090698242188 19.17916488647461 7.584660530090332 C 19.05682373046875 10.34823036193848 18.19222450256348 11.84843063354492 17.64109420776367 12.11020088195801 C 17.08996391296387 12.37197113037109 12.24860382080078 12.53964042663574 7.785134315490723 12.68279075622559 C 6.850394248962402 12.71276092529297 4.608034133911133 13.08720016479492 4.608034133911133 13.08720016479492 L -0.2127952575683594 16.99751091003418 L 1.146833419799805 12.83559036254883 L -0.2127952575683594 12.68279075622559 C -1.117105484008789 12.18841075897217 -1.03216552734375 10.19463062286377 -0.9557266235351562 7.584660530090332 C -0.8792858123779297 4.97468090057373 0.09297370910644531 2.242910385131836 0.09297370910644531 2.242910385131836 C 0.09297370910644531 2.242910385131836 4.532434463500977 1.352670669555664 9.041813850402832 1.05592155456543 C 10.54484558105469 0.9570102691650391 12.0558910369873 0.9240322113037109 13.40229797363281 0.9240322113037109 Z" stroke="none" fill="#fff"/>
    </g>
    <g id="Ellipse_126" data-name="Ellipse 126" transform="translate(179.549 -1884.551)" fill="#fff" stroke="#fff" stroke-width="1">
      <circle cx="1.11" cy="1.11" r="1.11" stroke="none"/>
      <circle cx="1.11" cy="1.11" r="0.61" fill="none"/>
    </g>
    <g id="Ellipse_127" data-name="Ellipse 127" transform="translate(182.879 -1884.551)" fill="#fff" stroke="#fff" stroke-width="1">
      <circle cx="1.11" cy="1.11" r="1.11" stroke="none"/>
      <circle cx="1.11" cy="1.11" r="0.61" fill="none"/>
    </g>
    <g id="Ellipse_128" data-name="Ellipse 128" transform="translate(186.209 -1884.551)" fill="#fff" stroke="#fff" stroke-width="1">
      <circle cx="1.11" cy="1.11" r="1.11" stroke="none"/>
      <circle cx="1.11" cy="1.11" r="0.61" fill="none"/>
    </g>
  </g>
</svg>
