<svg id="msg-received-ico" xmlns="http://www.w3.org/2000/svg" width="12" height="11.501" viewBox="0 0 12 11.501">
  <g id="Path_707" data-name="Path 707" transform="translate(4)" fill="#fff">
    <path d="M 7.25 6.917519092559814 L 0.9043377041816711 6.917519092559814 L 1.833775639533997 1.979507207870483 L 7.25 0.9122135043144226 L 7.25 6.917519092559814 Z" stroke="none"/>
    <path d="M 6.5 1.824429512023926 L 2.476920604705811 2.617197036743164 L 1.808675289154053 6.167519569396973 L 6.5 6.167519569396973 L 6.5 1.824429512023926 M 8 -4.76837158203125e-07 L 8 7.667519092559814 L 0 7.667519092559814 L 1.190629959106445 1.341819286346436 L 8 -4.76837158203125e-07 Z" stroke="none" fill="#666"/>
  </g>
  <g id="Path_706" data-name="Path 706" transform="translate(0 3.834)" fill="#fff">
    <path d="M 7.25 6.917519092559814 L 0.9043377041816711 6.917519092559814 L 1.833775639533997 1.979507207870483 L 7.25 0.9122135043144226 L 7.25 6.917519092559814 Z" stroke="none"/>
    <path d="M 6.5 1.824429512023926 L 2.476920604705811 2.617197036743164 L 1.808675289154053 6.167519569396973 L 6.5 6.167519569396973 L 6.5 1.824429512023926 M 8 -4.76837158203125e-07 L 8 7.667519092559814 L 0 7.667519092559814 L 1.190629959106445 1.341819286346436 L 8 -4.76837158203125e-07 Z" stroke="none" fill="#666"/>
  </g>
</svg>
