<svg xmlns="http://www.w3.org/2000/svg" width="8.911" height="14" viewBox="0 0 8.911 14">
  <g id="organize-ico" transform="translate(-266 -173)">
    <path id="arrow-down" d="M92.457,164.17l3.369-4a.567.567,0,0,1,.9,0,.865.865,0,0,1,0,1.069l-3.818,4.529a.566.566,0,0,1-.878.022l-3.844-4.548a.863.863,0,0,1,0-1.069.567.567,0,0,1,.9,0Z" transform="translate(178 21.009)" fill="#666"/>
    <path id="arrow-down-2" data-name="arrow-down" d="M4.457,4.22l3.369-4a.567.567,0,0,1,.9,0,.865.865,0,0,1,0,1.069L4.908,5.821a.566.566,0,0,1-.878.022L.186,1.294A.832.832,0,0,1,0,.76.832.832,0,0,1,.186.225a.567.567,0,0,1,.9,0Z" transform="translate(274.911 179.04) rotate(180)" fill="#666"/>
  </g>
</svg>
