<svg xmlns="http://www.w3.org/2000/svg" xmlns:xlink="http://www.w3.org/1999/xlink" width="201.947" height="40" viewBox="0 0 201.947 40">
  <defs>
    <linearGradient id="linear-gradient" x1="0.805" y1="1" x2="0.216" y2="1" gradientUnits="objectBoundingBox">
      <stop offset="0" stop-color="#fdd519"/>
      <stop offset="1" stop-color="#fffae2"/>
    </linearGradient>
    <filter id="Ellipse_119" x="95.947" y="0" width="40" height="40" filterUnits="userSpaceOnUse">
      <feOffset input="SourceAlpha"/>
      <feGaussianBlur stdDeviation="3" result="blur"/>
      <feFlood flood-color="#080708"/>
      <feComposite operator="in" in2="blur"/>
      <feComposite in="SourceGraphic"/>
    </filter>
  </defs>
  <g id="Group_6381" data-name="Group 6381" transform="translate(-0.053 -32.605)">
    <g id="Group_701" data-name="Group 701" transform="translate(-949.191 -2424.395)">
      <g id="Path_637" data-name="Path 637" transform="translate(1065.5 2468)" fill="#fff">
        <path d="M 74.19091796875 17.5 L 0.5000051856040955 17.5 L 0.5000051856040955 0.5 L 74.19091796875 0.5 L 74.19091796875 17.5 Z" stroke="none"/>
        <path d="M 0.9999923706054688 1 L 0.9999923706054688 17 L 73.69090270996094 17 L 73.69090270996094 1 L 0.9999923706054688 1 M -7.62939453125e-06 0 L 74.69090270996094 0 L 74.69090270996094 18 L -7.62939453125e-06 18 L -7.62939453125e-06 0 Z" stroke="none" fill="#b7b7b7"/>
      </g>
      <text id="_-123" data-name="-123" transform="translate(1102.191 2480)" fill="#b7b7b7" font-size="9" font-family="Roboto-Regular, Roboto"><tspan x="-8.822" y="0">-123</tspan></text>
    </g>
    <g id="Path_638" data-name="Path 638" transform="translate(-43.258 43.605)" fill="url(#linear-gradient)">
      <path d="M 158.7578735351562 17.5 L 43.81067276000977 17.5 L 43.81067276000977 9.74710750579834 L 47.09684753417969 3.986651182174683 L 158.7578735351562 0.5157788395881653 L 158.7578735351562 17.5 Z" stroke="none"/>
      <path d="M 158.2578735351562 1.031572341918945 L 47.392333984375 4.477717399597168 L 44.3106689453125 9.879679679870605 L 44.3106689453125 17 L 158.2578735351562 17 L 158.2578735351562 1.031572341918945 M 159.2578735351562 0 L 159.2578735351562 18 L 43.3106689453125 18 L 43.3106689453125 9.614507675170898 L 46.80133056640625 3.495599746704102 L 159.2578735351562 0 Z" stroke="none" fill="#080708"/>
    </g>
    <g id="Group_698" data-name="Group 698" transform="translate(-834 -2305.395)">
      <g transform="matrix(1, 0, 0, 1, 834.05, 2338)" filter="url(#Ellipse_119)">
        <circle id="Ellipse_119-2" data-name="Ellipse 119" cx="11" cy="11" r="11" transform="translate(104.95 9)" fill="#080708"/>
      </g>
      <text id="_03" data-name="03" transform="translate(943 2362)" fill="#fdd519" font-size="12" font-family="Roboto-Bold, Roboto" font-weight="700"><tspan x="0" y="0">03</tspan></text>
    </g>
    <g id="Group_699" data-name="Group 699" transform="translate(-756.264 -2299.395)">
      <g id="Group_700" data-name="Group 700">
        <circle id="Ellipse_119-3" data-name="Ellipse 119" cx="11" cy="11" r="11" transform="translate(936.264 2341)" fill="#b7b7b7"/>
        <text id="_01" data-name="01" transform="translate(940.264 2356)" fill="rgba(255,255,255,0.47)" font-size="12" font-family="Roboto-Bold, Roboto" font-weight="700"><tspan x="0" y="0">01</tspan></text>
      </g>
    </g>
  </g>
</svg>
