<svg id="qr-code_2_" data-name="qr-code (2)" xmlns="http://www.w3.org/2000/svg" width="29.688" height="29.688" viewBox="0 0 29.688 29.688">
  <g id="Group_6396" data-name="Group 6396">
    <g id="Group_6395" data-name="Group 6395">
      <path id="Path_5785" data-name="Path 5785" d="M24.9,80H4.788v7.661H0v.958H4.788v11.492H24.9V88.619h4.788v-.958H24.9ZM11.492,82.873h1.915v.958H11.492ZM5.746,80.958h4.788v4.788H5.746Zm4.788,18.2H5.746V94.365h4.788ZM7.661,93.407V92.45h.958v.958Zm16.28,5.746H11.492V93.407H9.577V91.492H6.7v1.915H5.746V88.619H6.7v1.915H9.577V88.619h1.915v1.915H16.28V88.619H18.2v5.746h4.788V91.492H21.069v-.958h1.915V88.619h.958ZM7.661,89.577v-.958h.958v.958Zm7.661-.958v.958H12.45v-.958h2.873Zm-.958-.958V86.7h.958v.958Zm7.661,4.788v.958H19.153V88.619h2.873v.958H20.111V92.45Zm1.915-4.788H16.28V85.746H13.407v1.915H5.746V86.7h5.746V84.788h2.873V81.915H11.492v-.958h6.7v.958H16.28v2.873H18.2V86.7h5.746ZM18.2,82.873v.958h-.958v-.958Zm5.746,2.873H19.153V80.958h4.788Z" transform="translate(0 -75.212)" fill="#fff"/>
      <path id="Path_5786" data-name="Path 5786" d="M112,114.873h2.873V112H112Zm.958-1.915h.958v.958h-.958Z" transform="translate(-105.296 -105.296)" fill="#fff"/>
      <path id="Path_5787" data-name="Path 5787" d="M114.873,336H112v2.873h2.873Zm-.958,1.915h-.958v-.958h.958Z" transform="translate(-105.296 -315.889)" fill="#fff"/>
      <path id="Path_5788" data-name="Path 5788" d="M338.873,112H336v2.873h2.873Zm-.958,1.915h-.958v-.958h.958Z" transform="translate(-315.889 -105.296)" fill="#fff"/>
      <path id="Path_5789" data-name="Path 5789" d="M208,274.873h1.915v.958H208V278.7h4.788V272H208Zm.958-1.915h2.873v4.788h-2.873v-.958h1.915v-2.873h-1.915Z" transform="translate(-195.55 -255.72)" fill="#fff"/>
      <path id="Path_5790" data-name="Path 5790" d="M304,338.873h4.788V336H304Zm.958-1.915h2.873v.958h-2.873Z" transform="translate(-285.804 -315.889)" fill="#fff"/>
      <path id="Path_5791" data-name="Path 5791" d="M.958.958H8.14V0H0V8.14H.958Z" fill="#fff"/>
      <path id="Path_5792" data-name="Path 5792" d="M32.958,38.225V32.958h5.267V32H32v6.225Z" transform="translate(-30.085 -30.085)" fill="#fff"/>
      <path id="Path_5793" data-name="Path 5793" d="M32.958,360H32v6.225h6.225v-.958H32.958Z" transform="translate(-30.085 -338.452)" fill="#fff"/>
      <path id="Path_5794" data-name="Path 5794" d="M.958,360H0v8.14H8.14v-.958H.958Z" transform="translate(0 -338.452)" fill="#fff"/>
      <path id="Path_5795" data-name="Path 5795" d="M365.267,38.225h.958V32H360v.958h5.267Z" transform="translate(-338.452 -30.085)" fill="#fff"/>
      <path id="Path_5796" data-name="Path 5796" d="M360,0V.958h7.183V8.14h.958V0Z" transform="translate(-338.452)" fill="#fff"/>
      <path id="Path_5797" data-name="Path 5797" d="M367.183,367.183H360v.958h8.14V360h-.958Z" transform="translate(-338.452 -338.452)" fill="#fff"/>
      <path id="Path_5798" data-name="Path 5798" d="M365.267,360v5.267H360v.958h6.225V360Z" transform="translate(-338.452 -338.452)" fill="#fff"/>
    </g>
  </g>
</svg>
