<svg id="Group_409" data-name="Group 409" xmlns="http://www.w3.org/2000/svg" width="18" height="18" viewBox="0 0 18 18">
  <path id="Path_475" data-name="Path 475" d="M21.548,80h-18V98h18V80Zm-12,2.571h1.714v.857H9.548ZM4.406,80.857H8.691v4.286H4.406ZM8.691,97.143H4.406V92.857H8.691ZM6.12,92v-.857h.857V92Zm14.571,5.143H9.548V92H7.834V90.286H5.263V92H4.406V87.714h.857v1.714H7.834V87.714H9.548v1.714h4.286V87.714h1.714v5.143h4.286V90.286H18.12v-.857h1.714V87.714h.857ZM6.12,88.571v-.857h.857v.857Zm6.857-.857v.857H10.406v-.857h2.571Zm-.857-.857V86h.857v.857Zm6.857,4.286V92H16.406V87.714h2.571v.857H17.263v2.571Zm1.714-4.286H13.834V85.143H11.263v1.714H4.406V86H9.548V84.286H12.12V81.714H9.548v-.857h6v.857H13.834v2.571h1.714V86h5.143Zm-5.143-4.286v.857h-.857v-.857Zm5.143,2.571H16.406V80.857h4.286Z" transform="translate(-3.548 -80)" fill="#080708"/>
  <path id="Path_476" data-name="Path 476" d="M112,114.571h2.571V112H112Zm.857-1.714h.857v.857h-.857Z" transform="translate(-110.286 -110.286)" fill="#080708"/>
  <path id="Path_477" data-name="Path 477" d="M114.571,336H112v2.571h2.571Zm-.857,1.714h-.857v-.857h.857Z" transform="translate(-110.286 -322.286)" fill="#080708"/>
  <path id="Path_478" data-name="Path 478" d="M338.571,112H336v2.571h2.571Zm-.857,1.714h-.857v-.857h.857Z" transform="translate(-322.286 -110.286)" fill="#080708"/>
  <path id="Path_479" data-name="Path 479" d="M208,274.571h1.714v.857H208V278h4.286v-6H208Zm.857-1.714h2.571v4.286h-2.571v-.857h1.714v-2.571h-1.714Z" transform="translate(-201.143 -261.714)" fill="#080708"/>
  <path id="Path_480" data-name="Path 480" d="M304,338.571h4.286V336H304Zm.857-1.714h2.571v.857h-2.571Z" transform="translate(-292 -322.286)" fill="#080708"/>
</svg>
