<svg xmlns="http://www.w3.org/2000/svg" width="24" height="24" viewBox="0 0 24 24">
  <g id="web-ico" transform="translate(-1516 -2458)">
    <path id="Path_681" data-name="Path 681" d="M1494.772,2513.991h.872l4.666,4.753v2.006l1.831,1.352v2.834h3.27l2.7-1.177,2.267-2.573h-2.049l-1.134-1.177h-1.439v-3.052l-.959-1.177h-6.061v-2.093h3.4v-2.834h2.66l1.875-2.965-2.311-.741-3.488.305-3.183,1.744-2.049,2.224-1.221,1.7Z" transform="translate(25 -46.04)" fill="#666"/>
    <g id="query_builder-24px" transform="translate(1516 2458)">
      <path id="Path_286" data-name="Path 286" d="M0,0H24V24H0Z" fill="rgba(0,0,0,0)"/>
      <path id="Path_287" data-name="Path 287" d="M11.99,2A10,10,0,1,0,22,12,10,10,0,0,0,11.99,2ZM12,20a8,8,0,1,1,8-8A8,8,0,0,1,12,20Z"/>
    </g>
  </g>
</svg>
